<svg width="768" height="273" viewBox="0 0 768 273" fill="none" xmlns="http://www.w3.org/2000/svg">
<mask id="mask0" mask-type="alpha" maskUnits="userSpaceOnUse" x="-30" y="-169" width="827" height="442">
<path d="M796.24 136.391L-29.6499 272.242V-168.736H796.24V136.391Z" fill="#F0F8FF"/>
</mask>
<g mask="url(#mask0)">
<path d="M796.24 136.391L-29.6499 272.242V-168.736H796.24V136.391Z" fill="#FFF5F5"/>
<path d="M235.3 226.419L235.41 226.704L235.473 226.988L235.442 227.273L235.268 227.557L235.458 227.842L235.363 228.126L235.221 228.411L235.394 228.695L235.315 228.98L235.331 229.264L235.268 229.549V229.833L235.094 230.102L235.157 230.402L235.11 230.671L235.221 230.971L235.126 231.24L235.047 231.524L235.142 231.825L235.094 232.093L235.284 232.394L234.983 232.662L235.062 232.947L234.999 233.231L234.904 233.5L235.015 233.8L235.094 234.1L234.904 234.369L234.999 234.654L235.047 234.954L234.936 235.223L234.825 235.491L234.746 235.776L234.731 236.06L234.683 236.345L234.762 236.629L234.573 236.898L234.746 237.214L234.667 237.483L234.557 237.752L234.588 238.052L234.652 238.336L234.335 238.589L234.351 238.874L234.225 239.142L234.241 239.427L234.383 239.743L234.32 240.027V240.312L234.288 240.596L234.146 240.849L234.162 241.15L234.098 241.434L234.114 241.719L233.861 241.956L233.719 242.224L233.909 242.556L233.845 242.825L233.624 243.078L233.545 243.347L233.561 243.631L233.64 243.947L233.308 244.168L233.356 244.469L233.371 244.753L233.403 245.054L233.324 245.338L233.292 245.623L232.992 245.844L232.897 246.113L232.945 246.413L232.929 246.697L232.897 246.982L232.692 247.235L232.565 247.488L232.534 247.772L232.502 248.057L232.423 248.341L232.502 248.657L232.455 248.942L232.249 249.179V249.463L232.17 249.748L232.012 249.985L231.838 250.238L231.759 250.506L231.617 250.759L231.728 251.091V251.392L231.38 251.581L231.364 251.866V252.166L231.38 252.482L231.206 252.719L231.064 252.972L230.985 253.241L230.874 253.509L230.669 253.747L230.779 254.078L230.574 254.316L230.669 254.632L230.432 254.853L230.463 255.169L230.179 255.374L230.21 255.691L230.036 255.928L229.894 256.181L229.942 256.497L229.673 256.702L229.625 256.987L229.436 257.224L229.309 257.477L229.404 257.824L229.072 257.982L229.104 258.314L228.946 258.551L228.74 258.773L228.883 259.136L228.598 259.326L228.472 259.579L228.408 259.863L228.329 260.132L228.14 260.369L227.966 260.606L228.029 260.938L227.839 261.175L227.808 261.46L227.65 261.697V262.013L227.27 262.155L227.318 262.503L227.223 262.771L227.144 263.04L226.986 263.277L226.701 263.451L226.765 263.799L226.67 264.067L226.543 264.336L226.417 264.589L226.038 264.715L226.053 265.047L225.801 265.237L225.816 265.553L225.674 265.806L225.405 265.98V266.312L225.279 266.565L224.979 266.723L225.01 267.055L224.868 267.307L224.726 267.56L224.505 267.75L224.425 268.035L224.331 268.303L223.999 268.445L223.951 268.746V269.078L223.714 269.267L223.556 269.504L223.382 269.726L223.177 269.947L223.161 270.263L223.082 270.548L222.892 270.769L222.655 270.959L222.624 271.275L222.387 271.449L222.071 271.591L222.134 271.97L221.991 272.223L221.818 272.444L221.533 272.602L221.312 272.792V273.14L221.027 273.282L220.901 273.535L220.885 273.883L220.585 274.009L220.601 274.372L220.332 274.531L220.142 274.736L220.111 275.068L219.7 275.131L219.542 275.368L219.431 275.637L219.273 275.874L219.178 276.158L218.894 276.301L218.925 276.664L218.72 276.87L218.372 276.965L218.388 277.328L218.04 277.439L217.945 277.707L217.771 277.944L217.566 278.134L217.55 278.482L217.202 278.577L217.076 278.83L216.823 278.988L216.665 279.225L216.649 279.588L216.27 279.651L216.191 279.936L215.938 280.11V280.473L215.685 280.631L215.401 280.774L215.385 281.137L215.053 281.216L214.895 281.453L214.705 281.659L214.531 281.88L214.452 282.196L214.12 282.291L214.073 282.623L213.757 282.718L213.567 282.939L213.457 283.223L213.299 283.461L212.998 283.571L212.84 283.808L212.556 283.935L212.413 284.188L212.24 284.409L212.018 284.599L211.844 284.82L211.718 285.089L211.354 285.152L211.165 285.357V285.752L210.912 285.895L210.58 285.974L210.454 286.258L210.343 286.543L210.043 286.637L209.79 286.78L209.568 286.969L209.553 287.364L209.363 287.57L209.126 287.744L208.857 287.87L208.652 288.06L208.541 288.36L208.193 288.392L208.099 288.724H207.719L207.545 288.961L207.482 289.309L207.166 289.372L207.071 289.704L206.787 289.814L206.644 290.083L206.376 290.209L206.139 290.352L205.886 290.51L205.617 290.62L205.412 290.826L205.301 291.142L205.032 291.253L204.843 291.474L204.669 291.711L204.353 291.774L204.163 291.995L204.021 292.28L203.736 292.375L203.42 292.438L203.357 292.817L202.946 292.738L202.883 293.133L202.503 293.102L202.377 293.402L202.156 293.576L201.95 293.781L201.713 293.939L201.524 294.177L201.318 294.366L201.034 294.445L200.765 294.556L200.607 294.825L200.338 294.935L200.006 294.983L199.896 295.315H199.548L199.342 295.52L199.169 295.757L198.947 295.947L198.758 296.152L198.362 296.089L198.236 296.421L198.062 296.658L197.699 296.626L197.462 296.8L197.272 296.99L197.035 297.148L196.782 297.306L196.545 297.448L196.276 297.559L196.055 297.749L195.755 297.812L195.644 298.16L195.391 298.302L195.059 298.286L194.87 298.507L194.569 298.57L194.474 298.981L194.127 298.934L193.89 299.092L193.684 299.298L193.479 299.519L193.099 299.456L192.989 299.803L192.609 299.74L192.42 299.961L192.183 300.135L191.914 300.214L191.677 300.388L191.377 300.42L191.139 300.578L190.95 300.815L190.697 300.957L190.444 301.084L190.239 301.305L189.875 301.21L189.638 301.368L189.432 301.621L189.148 301.668L188.99 302L188.626 301.921L188.437 302.142L188.168 302.269H187.852L187.694 302.585H187.378L187.093 302.632L186.856 302.79L186.667 303.075L186.35 303.059L186.145 303.312L185.892 303.439L185.592 303.454L185.339 303.581H185.023L184.833 303.834L184.564 303.944L184.233 303.881L184.043 304.181L183.758 304.245L183.505 304.355L183.268 304.513L182.968 304.529L182.668 304.561L182.494 304.908L182.209 304.972L181.988 305.145L181.64 305.051L181.388 305.193L181.087 305.209L180.866 305.398L180.597 305.493L180.376 305.73L180.107 305.809L179.854 305.952L179.586 306.062H179.285L179.033 306.204L178.701 306.078L178.448 306.252L178.179 306.347L177.91 306.442L177.689 306.647L177.357 306.584L177.12 306.758L176.867 306.868L176.567 306.9L176.298 306.979L176.03 307.042L175.745 307.121L175.524 307.342H175.223L174.907 307.311L174.686 307.564L174.37 307.469L174.117 307.611L173.833 307.627L173.596 307.848L173.295 307.817L173.074 308.117L172.805 308.18L172.489 308.117L172.205 308.133L171.936 308.243L171.667 308.354L171.383 308.37L171.146 308.575L170.861 308.638L170.561 308.591L170.245 308.528L169.992 308.654L169.723 308.733L169.47 308.939L169.154 308.86L168.901 308.986L168.648 309.16L168.348 309.113L168.064 309.128L167.748 309.065L167.479 309.144L167.258 309.492L166.941 309.334H166.657L166.372 309.413L166.088 309.381L165.851 309.697L165.566 309.729L165.282 309.745L164.966 309.587L164.697 309.697L164.428 309.776L164.128 309.761L163.859 309.84L163.607 310.061L163.306 310.014L163.006 309.903L162.737 310.014L162.484 310.266L162.184 310.14L161.884 310.108L161.599 310.14L161.331 310.219L161.062 310.345L160.762 310.219L160.477 310.235L160.193 310.251L159.94 310.551L159.639 310.472L159.339 310.33L159.07 310.456L158.802 310.677L158.517 310.741L158.217 310.567L157.948 310.725L157.664 310.741H157.379L157.095 310.677L156.826 310.867L156.526 310.677L156.241 310.835L155.957 310.725L155.672 310.741L155.388 310.709L155.103 310.899L154.835 310.946L154.534 310.851H154.25L153.965 310.962L153.697 311.025L153.396 310.804H153.112L152.827 310.851L152.543 310.93L152.258 310.741L151.974 310.867L151.689 310.835L151.405 311.057L151.12 310.788H150.836L150.551 310.82L150.267 310.835L149.982 311.009L149.698 310.788L149.413 310.946L149.129 311.025L148.844 311.057L148.56 310.993L148.275 310.899L147.991 310.914L147.722 310.693L147.438 310.709L147.137 310.93L146.869 310.756L146.584 310.772L146.3 310.82H145.999L145.715 310.914L145.446 310.709L145.146 310.867L144.877 310.662L144.577 310.835L144.308 310.567L144.024 310.614L143.739 310.598L143.471 310.488L143.17 310.614L142.886 310.646L142.601 310.503L142.301 310.662L142.032 310.551L141.764 310.33L141.479 310.44L141.195 310.33L140.91 310.361L140.626 310.393L140.357 310.156L140.057 310.314L139.772 310.33L139.519 310.061L139.219 310.077L138.95 310.045L138.682 309.887H138.397L138.113 309.855L137.828 309.824L137.544 309.808L137.259 309.792L136.975 309.761L136.69 309.745L136.437 309.539L136.137 309.571L135.868 309.46L135.552 309.666L135.268 309.634L135.015 309.445L134.73 309.413L134.477 309.239L134.145 309.381L133.924 309.081L133.655 309.002L133.339 309.065L133.039 309.144L132.786 308.955L132.502 308.923L132.249 308.765L131.948 308.797L131.632 308.876L131.427 308.496L131.095 308.717L130.874 308.433L130.589 308.386L130.273 308.48L130.02 308.307L129.752 308.212L129.435 308.307L129.23 307.959L128.882 308.164L128.614 308.069L128.376 307.864L128.045 307.959L127.839 307.659H127.539L127.286 307.516L126.97 307.579L126.717 307.453L126.448 307.358L126.148 307.342L125.879 307.248L125.611 307.2L125.358 307.011L125.105 306.916L124.804 306.868L124.567 306.71L124.251 306.758L123.983 306.631L123.745 306.457L123.477 306.378L123.192 306.331L122.892 306.315L122.718 305.952L122.434 305.92L122.165 305.809L121.928 305.667L121.643 305.604L121.359 305.541L121.09 305.477L120.806 305.398L120.537 305.335L120.316 305.098L120.031 305.019L119.699 305.114L119.462 304.94L119.178 304.893L118.925 304.766L118.688 304.592L118.466 304.371L118.182 304.308L117.882 304.292L117.597 304.245L117.329 304.134L117.06 304.023L116.839 303.849L116.633 303.612L116.38 303.486L116.048 303.518L115.764 303.454L115.543 303.249L115.242 303.233L115.037 302.98L114.847 302.727L114.515 302.759L114.278 302.617L114.073 302.364L113.709 302.459L113.44 302.364L113.203 302.221L113.061 301.874L112.729 301.89L112.524 301.652L112.239 301.605L112.002 301.431L111.718 301.368L111.512 301.163L111.164 301.21L110.991 300.91L110.785 300.688L110.437 300.752L110.311 300.404L109.979 300.388L109.742 300.246L109.41 300.262L109.205 300.04L108.92 299.977L108.762 299.677L108.446 299.645L108.272 299.361L108.067 299.171L107.687 299.25L107.608 298.839L107.292 298.792L107.008 298.713L106.85 298.444L106.565 298.365L106.375 298.128L106.123 297.986L105.775 298.001L105.506 297.891L105.395 297.543L105.19 297.338L104.795 297.432L104.621 297.18L104.447 296.911L104.242 296.721H103.894L103.736 296.453L103.483 296.326L103.278 296.121L102.882 296.2L102.709 295.947L102.582 295.646L102.219 295.662L102.14 295.267L101.729 295.346L101.681 294.951L101.334 294.919L101.207 294.635L100.907 294.556L100.606 294.493L100.338 294.35L100.227 294.034L99.9901 293.892L99.832 293.623H99.4685L99.3262 293.355L99.0575 293.228L98.9627 292.896L98.694 292.786L98.4569 292.612L98.1724 292.517L97.9986 292.28L97.6825 292.217L97.6193 291.837L97.2241 291.869L96.9712 291.727L96.75 291.553L96.6393 291.237L96.4813 290.984H96.1177L96.0861 290.573L95.691 290.605L95.6594 290.209H95.2801L95.1694 289.909L94.8375 289.862L94.6004 289.688L94.5056 289.372L94.2053 289.277L94.1421 288.913L93.8418 288.834L93.5573 288.708L93.4308 288.439L93.257 288.202L93.1305 287.933L92.8618 287.807L92.5615 287.696L92.4351 287.412L92.2454 287.206L91.9768 287.08L91.8029 286.859L91.6606 286.59L91.2971 286.558L91.2339 286.226L91.1075 285.942L90.8704 285.768L90.6175 285.626L90.2856 285.563L90.2382 285.215L90.0485 284.994L89.7482 284.883L89.7166 284.52L89.3689 284.456L89.195 284.235L88.9737 284.061L88.7683 283.856L88.6734 283.555L88.4838 283.35L88.1361 283.271L88.0728 282.955L87.7883 282.828L87.7409 282.496L87.4564 282.354L87.3616 282.07L87.0771 281.943L86.8558 281.754L86.7926 281.437L86.6187 281.2L86.4923 280.932L86.0972 280.9L85.8917 280.695L85.7494 280.442L85.6862 280.126L85.5124 279.904L85.2753 279.73L85.1805 279.446L85.0224 279.209L84.7853 279.035L84.5166 278.877L84.406 278.608L84.2321 278.387L84.0267 278.182L83.8844 277.944L83.6631 277.755L83.5367 277.486L83.2522 277.344L83.2206 277.012L82.8887 276.917L82.8571 276.569L82.7464 276.301L82.6042 276.064L82.3355 275.906L82.2407 275.621L82.0984 275.368L81.972 275.115L81.8139 274.878L81.561 274.72L81.4978 274.404L81.2291 274.246L80.9446 274.088L80.992 273.724L80.6127 273.645L80.4705 273.393L80.2808 273.171L80.2334 272.871L80.0279 272.65L79.9173 272.397L79.696 272.191V271.859L79.5854 271.591L79.3957 271.369L79.2376 271.148L79.1586 270.848L78.8109 270.737L78.6054 270.532L78.479 270.279L78.3684 270.01L78.1945 269.773L78.0048 269.568L78.0997 269.173L77.8626 268.983L77.7678 268.698L77.5307 268.525L77.2778 268.335L77.2146 268.05L77.0407 267.813L77.0723 267.481L76.8194 267.292L76.5823 267.086L76.693 266.707L76.3453 266.58L76.1714 266.343L76.0608 266.09V265.759L75.9817 265.474L75.7289 265.284L75.7921 264.937L75.5866 264.731L75.3495 264.526L75.1599 264.304L75.2073 263.957L74.907 263.799L74.8912 263.483L74.7331 263.246L74.5119 263.04V262.724L74.259 262.518L74.3064 262.187L74.2115 261.918L74.0219 261.697L73.9745 261.396L73.6426 261.238L73.6742 260.922L73.5635 260.653L73.4213 260.401L73.4687 260.084L73.2316 259.879L73.1842 259.579L72.8839 259.405L73.042 259.025L72.631 258.883L72.8207 258.504L72.4255 258.362V258.046L72.3465 257.777L72.1252 257.556L72.0778 257.271L72.1252 256.939L72.0304 256.686L71.7775 256.465L71.5879 256.244L71.7301 255.88L71.6827 255.596L71.5088 255.359V255.058L71.3982 254.79L71.1611 254.584L70.9873 254.331L70.8134 254.094L70.9556 253.747L70.8608 253.478L70.7028 253.241L70.6395 252.956L70.355 252.751L70.5605 252.387L70.4973 252.103L70.3709 251.85L70.0073 251.66V251.376L69.8967 251.107L69.9599 250.791L69.8493 250.522L69.8019 250.238L69.8335 249.937L69.628 249.7L69.5174 249.432L69.4225 249.163L69.3277 248.894L69.2803 248.626L69.3751 248.294L69.1222 248.072L69.2171 247.756L69.0748 247.503L68.98 247.235L68.7113 246.998L68.8851 246.666L68.7745 246.397L68.6481 246.144L68.7113 245.828L68.5374 245.591L68.6165 245.275L68.569 244.99L68.2055 244.785L68.4426 244.437L68.3636 244.168L68.0633 243.947L68.0001 243.663L68.1423 243.347L67.9368 243.094L67.8578 242.825L67.921 242.525L67.7156 242.272L67.8262 241.956L67.6839 241.703L67.7788 241.387L67.7156 241.118L67.6049 240.849V240.549L67.4943 240.28L67.5575 239.996L67.4627 239.711L67.4943 239.427L67.1624 239.19L67.3204 238.874L67.1308 238.621L67.0517 238.336L67.194 238.036L67.0517 237.767L67.2098 237.451L66.9885 237.198L66.9253 236.914L66.8779 236.645L66.8937 236.361L66.9411 236.06L66.7672 235.792L66.704 235.523L66.8305 235.223L66.7514 234.938L66.6566 234.669L66.7672 234.369L66.783 234.085L66.7198 233.8L66.4827 233.531V233.247L66.625 232.947L66.5143 232.678L66.4195 232.394L66.5618 232.109L66.4511 231.825L66.5143 231.54L66.4985 231.256L66.5618 230.971L66.4827 230.687L66.3879 230.402L66.4511 230.118L66.2457 229.833L66.4985 229.549L66.5143 229.264L66.4669 228.98L66.2931 228.695L66.2615 228.411L66.1982 228.126L66.4511 227.842L66.4827 227.557L66.2931 227.273L66.2773 226.988L66.1982 226.704L66.2299 226.419L66.4037 226.135L66.2457 225.85L66.4669 225.566L66.4353 225.281L66.4037 224.997L66.3405 224.712L66.5143 224.428L66.2931 224.143L66.4827 223.859L66.5302 223.574L66.4827 223.29L66.2773 223.005L66.3879 222.721L66.4037 222.436V222.152L66.3879 221.867L66.5143 221.598L66.4985 221.298L66.5143 221.014L66.625 220.745L66.4037 220.445L66.5618 220.176L66.5776 219.891L66.5302 219.591L66.7356 219.322L66.5302 219.022L66.8305 218.769L66.6408 218.469L66.625 218.169L66.7198 217.9L66.8621 217.631L66.704 217.331V217.047L66.8779 216.778L66.9253 216.493L66.9569 216.209L67.115 215.94L67.0991 215.656L66.9253 215.34L67.194 215.087L67.1782 214.802L67.0675 214.502L67.3046 214.249L67.1466 213.933L67.4627 213.696L67.4943 213.411L67.2888 213.095L67.352 212.811L67.3678 212.526L67.4153 212.257L67.4785 211.973L67.4943 211.689L67.5733 211.404L67.8104 211.167L67.6523 210.851L67.9368 210.614L68.0317 210.345L67.7788 209.997L67.8578 209.729L68.0317 209.476L68.1897 209.207L68.2055 208.923L68.1897 208.638L68.4268 208.385L68.411 208.101L68.5532 207.848L68.411 207.516L68.6481 207.279L68.7271 207.01L68.7587 206.726L68.7271 206.425L68.8377 206.157L68.8061 205.856L69.0274 205.619L69.138 205.351L68.9642 205.019L69.2329 204.797L69.3593 204.529L69.2803 204.213L69.4067 203.96L69.5174 203.691L69.6438 203.422L69.6596 203.138L69.6912 202.853L69.8651 202.616L69.8809 202.316L69.8967 202.016L69.9915 201.763L69.9441 201.447L70.2444 201.241L70.2286 200.941L70.4973 200.72L70.4499 200.419L70.6079 200.166L70.687 199.882L70.6237 199.566L70.7976 199.329L71.0031 199.092L70.8766 198.76L71.1927 198.57L71.1611 198.254L71.1453 197.938L71.3034 197.701L71.4772 197.464L71.4614 197.148L71.493 196.863L71.7933 196.658L71.904 196.405L72.062 196.168L71.9198 195.804L72.2517 195.63L72.3781 195.377L72.3939 195.077L72.4888 194.808L72.631 194.556L72.8207 194.318L72.6626 193.955L73.042 193.797L72.8681 193.418L73.0578 193.196L73.1842 192.943L73.4371 192.738L73.5003 192.453L73.5951 192.185L73.6584 191.9L73.8954 191.695V191.379L74.1167 191.173L74.1325 190.873L74.1641 190.573L74.496 190.415L74.4328 190.067L74.5277 189.798L74.7173 189.561L74.7805 189.292L74.986 189.071L75.1599 188.834L75.3495 188.613L75.2863 188.265L75.6024 188.107L75.7605 187.87V187.554L75.8079 187.253L76.1082 187.095V186.763L76.4559 186.637L76.5191 186.337L76.5665 186.052L76.7404 185.815L76.9617 185.61L76.8985 185.246L77.1355 185.057L77.1513 184.74L77.3884 184.551L77.5149 184.298L77.6887 184.061L77.8626 183.84L77.989 183.587L78.0997 183.318L78.3525 183.144L78.3209 182.796L78.4474 182.528L78.6845 182.338L78.9057 182.148L79.0164 181.88L79.2535 181.69L79.3009 181.39L79.4747 181.168L79.617 180.916L79.775 180.678L79.8383 180.378L80.1227 180.22L80.3124 179.999L80.4863 179.793L80.5179 179.477L80.6601 179.224L80.9762 179.098V178.734L81.324 178.64L81.3872 178.339L81.4346 178.023L81.6559 177.833L81.9562 177.691L82.13 177.47V177.122L82.2881 176.885L82.5726 176.743V176.379L82.9519 176.316L83.1416 176.095L83.2838 175.842L83.3786 175.573L83.5525 175.336L83.758 175.147L84.0109 174.989V174.625L84.327 174.514L84.3586 174.167L84.4534 173.882L84.6905 173.708L84.8327 173.455L85.0066 173.234L85.2753 173.076L85.3385 172.776L85.7811 172.76L85.8127 172.428L86.113 172.302L86.3026 172.08L86.4607 171.859L86.5081 171.511L86.682 171.306L86.8874 171.1L87.1403 170.942L87.409 170.8L87.5513 170.547L87.6461 170.247L87.8199 170.026L88.1202 169.915L88.3257 169.71L88.4047 169.393L88.6418 169.22L88.7841 168.982L88.9263 168.73L89.1634 168.54L89.4005 168.382L89.6692 168.24L89.7956 167.971L90.0959 167.876V167.465L90.4436 167.418L90.5069 167.07L90.8704 167.054L91.06 166.833L91.1707 166.548L91.3287 166.296L91.7081 166.264L91.8503 166.011L91.9926 165.742L92.1506 165.505L92.4193 165.363L92.5932 165.142L92.7986 164.952L92.9883 164.731L93.3044 164.668L93.4941 164.431L93.6995 164.241L93.8576 163.988L94.0631 163.798L94.2053 163.545L94.553 163.498L94.632 163.166L94.8849 163.024L95.0746 162.803L95.4223 162.771L95.6594 162.613L95.8491 162.392L96.0071 162.139L96.1652 161.886L96.3706 161.696L96.5919 161.522L96.8132 161.317L97.1451 161.285L97.398 161.143L97.477 160.795L97.7299 160.669L97.9828 160.511L98.2199 160.353L98.4569 160.211L98.5992 159.91L98.773 159.673L98.9785 159.499L99.4053 159.578L99.5791 159.341L99.7846 159.136L99.9743 158.899L100.227 158.788L100.512 158.693L100.591 158.298L100.954 158.33L101.128 158.093L101.444 158.045L101.65 157.824L101.776 157.524L102.076 157.46L102.219 157.16H102.566L102.661 156.797L103.072 156.891L103.23 156.623L103.404 156.37L103.689 156.291L103.941 156.149L104.068 155.832L104.4 155.801H104.732L104.874 155.501L105.064 155.263L105.332 155.169L105.554 154.979L105.759 154.773H106.091L106.36 154.663L106.518 154.378L106.723 154.157L106.976 154.031H107.308L107.545 153.888L107.798 153.746L107.956 153.446L108.288 153.477L108.588 153.43L108.667 152.987L109.047 153.067L109.173 152.719L109.442 152.624L109.679 152.466L109.916 152.292L110.248 152.324L110.485 152.166L110.722 151.992L110.927 151.786L111.307 151.865L111.449 151.533L111.733 151.486L112.018 151.407L112.318 151.36L112.571 151.249L112.698 150.854L112.95 150.743L113.235 150.664L113.567 150.68L113.709 150.348L113.978 150.237L114.341 150.348L114.484 149.969L114.768 149.905H115.068L115.321 149.747L115.606 149.7L115.78 149.4L116.127 149.479L116.301 149.147L116.586 149.115L116.807 148.878L117.155 148.973L117.344 148.704L117.692 148.799L117.85 148.436L118.229 148.609L118.466 148.451L118.704 148.293L118.956 148.151L119.288 148.183L119.462 147.867L119.81 147.977L120.063 147.835L120.3 147.677L120.521 147.456L120.869 147.55L121.106 147.408L121.311 147.155L121.596 147.076L121.849 146.95L122.102 146.792L122.434 146.887L122.639 146.618L122.987 146.76L123.161 146.381L123.477 146.444L123.714 146.254L123.998 146.207L124.33 146.286L124.583 146.191L124.789 145.859L125.105 145.922L125.373 145.843L125.658 145.78L125.927 145.685L126.211 145.654L126.496 145.622L126.733 145.417L127.049 145.496L127.302 145.369L127.57 145.259L127.839 145.148L128.06 144.864L128.345 144.832L128.598 144.721L128.898 144.705L129.23 144.832L129.514 144.8L129.767 144.705L130.02 144.547L130.257 144.326L130.589 144.437L130.874 144.421L131.127 144.263L131.364 144.026L131.664 144.042L131.964 144.073H132.249L132.533 144.042L132.786 143.852L133.071 143.805L133.324 143.694L133.608 143.631L133.877 143.504L134.161 143.52L134.462 143.536L134.714 143.33L134.983 143.283L135.299 143.394L135.584 143.378H135.868L136.153 143.33L136.39 143.062L136.706 143.22L136.959 142.983L137.275 143.141L137.544 143.014L137.828 143.03L138.113 142.999L138.381 142.825L138.666 142.856L138.919 142.603L139.235 142.84L139.503 142.73L139.772 142.619L140.072 142.635L140.341 142.54L140.61 142.398L140.926 142.667L141.195 142.477L141.479 142.509L141.748 142.319L142.048 142.398L142.317 142.287L142.617 142.414L142.886 142.208L143.17 142.161L143.455 142.24L143.739 142.145L144.008 142.05L144.308 142.161L144.577 142.05H144.861L145.162 142.192L145.446 142.24H145.731L146.015 142.177H146.3L146.584 142.05L146.853 142.019L147.153 142.113L147.422 141.845L147.706 141.892L147.991 141.971L148.275 141.892L148.56 141.955L148.844 141.845L149.129 141.781H149.413L149.698 141.861L149.982 141.845L150.267 142.019L150.551 141.797L150.836 141.829L151.12 141.94L151.405 142.066L151.689 141.924L151.974 141.797L152.258 141.94L152.543 141.876L152.827 141.829L153.112 141.845L153.396 142.113L153.681 142.098L153.965 142.145L154.25 141.971L154.534 142.082H154.819L155.119 141.876L155.388 142.113L155.672 141.94L155.957 142.177L156.241 142.019L156.526 142.145H156.81L157.079 142.303L157.363 142.287L157.664 142.129L157.948 142.05L158.217 142.271L158.501 142.414L158.802 142.177H159.086L159.355 142.382L159.639 142.335L159.908 142.493L160.208 142.414L160.477 142.603L160.777 142.477L161.062 142.398L161.331 142.651L161.599 142.73L161.9 142.619L162.152 142.825L162.484 142.588L162.753 142.667L163.053 142.635L163.306 142.809H163.591L163.875 142.888L164.128 143.078L164.428 143.046L164.745 142.904L164.982 143.125L165.25 143.267L165.582 143.046L165.851 143.188H166.135L166.388 143.346L166.641 143.536L166.926 143.599L167.226 143.52L167.542 143.409L167.811 143.52L168.095 143.552L168.317 143.884L168.648 143.694H168.933L169.17 143.947H169.455L169.707 144.136L169.976 144.231L170.324 144.026L170.593 144.089L170.845 144.263L171.114 144.374L171.414 144.342L171.699 144.405L171.936 144.579L172.236 144.563L172.521 144.626L172.758 144.848L173.011 144.974L173.311 144.943L173.627 144.911L173.88 145.037L174.165 145.085L174.386 145.322L174.718 145.243L175.002 145.259L175.208 145.591L175.476 145.654L175.792 145.622L176.045 145.733L176.314 145.828L176.63 145.78L176.836 146.096L177.104 146.16L177.357 146.318L177.642 146.365L177.926 146.412L178.242 146.349L178.432 146.681L178.764 146.586L179.017 146.729L179.27 146.855L179.507 147.06L179.791 147.108L180.044 147.219L180.392 147.124L180.597 147.345L180.85 147.487L181.103 147.614L181.372 147.708L181.735 147.582L181.988 147.693L182.146 148.072L182.415 148.167L182.763 148.056L183.047 148.119L183.237 148.42L183.553 148.404L183.727 148.72L184.106 148.562L184.343 148.704L184.564 148.941L184.817 149.052L185.054 149.21L185.355 149.242L185.56 149.494H185.86L186.113 149.637L186.366 149.763L186.667 149.795L186.951 149.858L187.141 150.127L187.346 150.364L187.678 150.301L187.931 150.459L188.215 150.522L188.374 150.838L188.753 150.727L188.943 150.98L189.148 151.201L189.464 151.186L189.733 151.296L189.97 151.47L190.175 151.691L190.523 151.612L190.665 151.96L190.902 152.118L191.155 152.26L191.519 152.181L191.661 152.529L191.914 152.64L192.151 152.814L192.451 152.845L192.704 152.972L192.941 153.13L193.242 153.193L193.479 153.335L193.716 153.509L193.937 153.699L194.142 153.904L194.348 154.11L194.68 154.094L194.838 154.394L195.075 154.552L195.439 154.489L195.691 154.631L195.928 154.789L196.15 154.979L196.292 155.295L196.64 155.279L196.798 155.548L196.987 155.769L197.225 155.943L197.556 155.959L197.841 156.022L197.999 156.307L198.252 156.433L198.457 156.639L198.631 156.876L198.868 157.049L199.169 157.113L199.469 157.192L199.643 157.413L199.832 157.65L200.054 157.824L200.417 157.808L200.528 158.14L200.702 158.377L201.113 158.314L201.192 158.693L201.381 158.883L201.603 159.073L202.029 158.978L202.172 159.246L202.345 159.499L202.551 159.705L202.788 159.847L203.072 159.973L203.278 160.147L203.42 160.432H203.8L203.973 160.653L204.195 160.827L204.432 160.985L204.637 161.19L204.811 161.428L205.127 161.491L205.301 161.728L205.491 161.949L205.617 162.218L205.886 162.36L206.155 162.486L206.439 162.597L206.597 162.834L206.85 162.976L207.087 163.135L207.134 163.514L207.482 163.545L207.577 163.877L207.83 164.02L207.941 164.32L208.288 164.352L208.415 164.652L208.715 164.731L208.936 164.921L209.189 165.063L209.347 165.316L209.584 165.474L209.568 165.885L209.964 165.9L210.011 166.264L210.232 166.438L210.375 166.691L210.612 166.865L210.944 166.928L211.054 167.228L211.291 167.386L211.592 167.497L211.576 167.908L211.844 168.034L211.987 168.287L212.366 168.334L212.54 168.556L212.619 168.856L212.856 169.03L213.014 169.267L213.314 169.393L213.33 169.757L213.567 169.931L213.804 170.105L214.136 170.184L214.184 170.516L214.421 170.689L214.579 170.927L214.626 171.258L214.847 171.432L215.069 171.622L215.385 171.733L215.559 171.954L215.654 172.254L215.922 172.396L215.938 172.76L216.333 172.792L216.412 173.108L216.554 173.361L216.776 173.534L217.06 173.677L217.234 173.898L217.171 174.309L217.534 174.388L217.566 174.72L217.708 174.973L217.914 175.162L218.056 175.415L218.214 175.652L218.546 175.763L218.657 176.032L218.72 176.348L218.878 176.569L219.241 176.664L219.415 176.885L219.399 177.249L219.7 177.391L219.905 177.581L219.889 177.944L220.253 178.039V178.387L220.379 178.64L220.695 178.766L220.838 179.019L220.964 179.272L221.091 179.525L221.233 179.778L221.501 179.936L221.581 180.22L221.865 180.378L221.849 180.726L222.118 180.9L222.26 181.153L222.387 181.39L222.624 181.579L222.75 181.848L222.892 182.085L222.861 182.449L223.129 182.622L223.224 182.891L223.509 183.049L223.651 183.302L223.635 183.634L223.73 183.903L224.125 184.013V184.345L224.41 184.503L224.552 184.74L224.505 185.104L224.615 185.357L224.963 185.499L225.089 185.752V186.084L225.295 186.289L225.484 186.511L225.469 186.843L225.769 187.001L225.753 187.332L225.974 187.538L225.911 187.886L226.212 188.06L226.259 188.344L226.464 188.565L226.654 188.787L226.812 189.024L226.891 189.308L226.97 189.577L227.112 189.83V190.146L227.334 190.351V190.667L227.476 190.92L227.697 191.126L227.855 191.363L227.934 191.647L227.871 191.979L228.045 192.216L228.077 192.517L228.393 192.69L228.487 192.959L228.535 193.244L228.693 193.481L228.661 193.797L228.788 194.066L229.041 194.271L229.088 194.54L229.23 194.793L229.42 195.03L229.325 195.377L229.689 195.535L229.594 195.883L229.799 196.104L229.989 196.342L229.91 196.673L229.942 196.958L230.273 197.148L230.4 197.4L230.226 197.764L230.384 198.001L230.511 198.254L230.479 198.57L230.637 198.823L230.748 199.076L230.874 199.345L231.143 199.55L231.048 199.882L231.095 200.166L231.206 200.419L231.49 200.641L231.396 200.957L231.427 201.241L231.459 201.541L231.791 201.731L231.886 202L231.838 202.316L232.012 202.553L232.154 202.822L231.933 203.169L232.265 203.375L232.376 203.644L232.17 203.991L232.281 204.26L232.439 204.497L232.676 204.734L232.47 205.082L232.723 205.319L232.613 205.635L232.707 205.904L232.96 206.125L233.039 206.41L233.15 206.662L233.182 206.963L233.118 207.263L233.292 207.516L233.213 207.816L233.324 208.085L233.261 208.401L233.34 208.67L233.387 208.954L233.545 209.207L233.656 209.476L233.814 209.729L233.877 210.013L233.656 210.345L233.861 210.582L233.893 210.867L233.845 211.167L233.893 211.451L233.972 211.72L234.083 211.989L234.241 212.257L234.193 212.558V212.842L234.43 213.095L234.335 213.395V213.68L234.351 213.964L234.62 214.217L234.446 214.518L234.588 214.786L234.414 215.102L234.683 215.355L234.652 215.64L234.715 215.924L234.667 216.209L234.699 216.493L234.778 216.778L234.968 217.047L234.762 217.347L234.81 217.631L234.825 217.916L235.031 218.185L235.11 218.453L234.857 218.769L234.968 219.038L235.126 219.307L235.015 219.607L234.968 219.891L235.078 220.176L235.205 220.445L235.157 220.729L235.331 221.014L235.268 221.298L235.205 221.583L235.315 221.867L235.062 222.167L235.142 222.436L235.236 222.721L235.142 223.005L235.347 223.29L235.3 223.574L235.347 223.859L235.379 224.143L235.394 224.428L235.315 224.712L235.41 224.997L235.205 225.281L235.3 225.566L235.379 225.85L235.41 226.135L235.3 226.419Z" fill="#FFCC33"/>
<path d="M745.659 166.58L745.784 166.902L745.856 167.225L745.82 167.547L745.623 167.87L745.838 168.192L745.731 168.515L745.569 168.837L745.766 169.16L745.677 169.483L745.695 169.805L745.623 170.128V170.45L745.426 170.755L745.498 171.095L745.444 171.4L745.569 171.74L745.462 172.045L745.372 172.368L745.48 172.708L745.426 173.013L745.641 173.353L745.301 173.658L745.39 173.98L745.318 174.303L745.211 174.608L745.336 174.948L745.426 175.288L745.211 175.593L745.318 175.916L745.372 176.256L745.247 176.561L745.121 176.865L745.032 177.188L745.014 177.51L744.96 177.833L745.05 178.156L744.835 178.46L745.032 178.819L744.942 179.123L744.817 179.428L744.853 179.768L744.924 180.091L744.566 180.378L744.584 180.7L744.44 181.005L744.458 181.327L744.62 181.686L744.548 182.008V182.331L744.512 182.653L744.351 182.94L744.369 183.281L744.297 183.603L744.315 183.926L744.028 184.194L743.867 184.499L744.082 184.875L744.01 185.18L743.759 185.467L743.67 185.771L743.688 186.094L743.777 186.452L743.401 186.703L743.455 187.044L743.473 187.366L743.509 187.707L743.419 188.029L743.383 188.352L743.043 188.603L742.935 188.907L742.989 189.248L742.971 189.57L742.935 189.893L742.702 190.18L742.559 190.466L742.523 190.789L742.487 191.111L742.398 191.434L742.487 191.792L742.433 192.115L742.2 192.384V192.706L742.111 193.029L741.932 193.297L741.735 193.584L741.645 193.889L741.484 194.176L741.609 194.552V194.892L741.215 195.107L741.197 195.43V195.77L741.215 196.129L741.018 196.398L740.857 196.684L740.767 196.989L740.641 197.294L740.409 197.562L740.534 197.939L740.301 198.207L740.409 198.566L740.14 198.817L740.176 199.175L739.853 199.408L739.889 199.766L739.692 200.035L739.53 200.322L739.584 200.68L739.28 200.913L739.226 201.236L739.011 201.505L738.867 201.791L738.975 202.186L738.599 202.365L738.635 202.741L738.455 203.01L738.222 203.261L738.384 203.673L738.061 203.888L737.918 204.175L737.846 204.497L737.756 204.802L737.541 205.071L737.344 205.339L737.416 205.716L737.201 205.984L737.165 206.307L736.986 206.576V206.934L736.556 207.095L736.61 207.49L736.502 207.794L736.412 208.099L736.233 208.368L735.911 208.565L735.982 208.959L735.875 209.264L735.732 209.568L735.588 209.855L735.158 209.998L735.176 210.375L734.889 210.59L734.907 210.948L734.746 211.235L734.441 211.432V211.808L734.298 212.095L733.958 212.274L733.993 212.65L733.832 212.937L733.671 213.224L733.42 213.439L733.33 213.761L733.223 214.066L732.847 214.227L732.793 214.568V214.944L732.524 215.159L732.345 215.428L732.148 215.679L731.915 215.93L731.897 216.288L731.807 216.611L731.592 216.862L731.323 217.077L731.288 217.435L731.019 217.632L730.66 217.793L730.732 218.223L730.571 218.51L730.374 218.761L730.051 218.94L729.8 219.155V219.549L729.478 219.711L729.334 219.997L729.316 220.392L728.976 220.535L728.994 220.947L728.689 221.126L728.474 221.359L728.438 221.736L727.972 221.807L727.793 222.076L727.668 222.381L727.489 222.65L727.381 222.972L727.059 223.133L727.094 223.545L726.861 223.778L726.467 223.886L726.485 224.298L726.091 224.424L725.983 224.728L725.786 224.997L725.553 225.212L725.535 225.606L725.141 225.714L724.998 226L724.711 226.18L724.532 226.448L724.514 226.861L724.084 226.932L723.994 227.255L723.708 227.452V227.864L723.421 228.043L723.098 228.205L723.08 228.617L722.704 228.706L722.525 228.975L722.31 229.208L722.113 229.459L722.023 229.817L721.647 229.925L721.593 230.301L721.235 230.409L721.02 230.66L720.894 230.982L720.715 231.251L720.375 231.376L720.195 231.645L719.873 231.788L719.712 232.075L719.514 232.326L719.264 232.541L719.066 232.792L718.923 233.097L718.511 233.168L718.296 233.401V233.849L718.009 234.01L717.633 234.1L717.49 234.423L717.364 234.745L717.024 234.853L716.737 235.014L716.486 235.229L716.468 235.677L716.253 235.91L715.984 236.107L715.68 236.25L715.447 236.465L715.321 236.806L714.927 236.842L714.82 237.218H714.39L714.192 237.487L714.121 237.881L713.762 237.953L713.655 238.329L713.332 238.454L713.171 238.759L712.866 238.902L712.598 239.064L712.311 239.243L712.006 239.368L711.773 239.601L711.648 239.96L711.343 240.085L711.128 240.336L710.931 240.605L710.573 240.676L710.358 240.927L710.196 241.25L709.874 241.357L709.515 241.429L709.444 241.859L708.978 241.77L708.906 242.218L708.476 242.182L708.333 242.522L708.082 242.719L707.849 242.952L707.58 243.131L707.365 243.4L707.132 243.615L706.81 243.705L706.505 243.83L706.326 244.135L706.021 244.26L705.645 244.314L705.519 244.69H705.125L704.892 244.923L704.695 245.192L704.444 245.407L704.229 245.64L703.781 245.568L703.638 245.945L703.441 246.214L703.029 246.178L702.76 246.375L702.545 246.59L702.276 246.769L701.989 246.948L701.72 247.11L701.416 247.235L701.165 247.45L700.825 247.522L700.699 247.916L700.412 248.077L700.036 248.059L699.821 248.31L699.481 248.382L699.373 248.848L698.979 248.794L698.71 248.973L698.477 249.206L698.244 249.457L697.814 249.385L697.689 249.78L697.259 249.708L697.044 249.959L696.775 250.156L696.47 250.245L696.201 250.443L695.861 250.478L695.592 250.658L695.377 250.926L695.09 251.088L694.804 251.231L694.571 251.482L694.158 251.374L693.89 251.554L693.657 251.84L693.334 251.894L693.155 252.27L692.743 252.181L692.528 252.432L692.223 252.575H691.865L691.686 252.933H691.327L691.005 252.987L690.736 253.166L690.521 253.489L690.162 253.471L689.93 253.758L689.643 253.901L689.302 253.919L689.016 254.062H688.657L688.442 254.349L688.138 254.474L687.761 254.403L687.546 254.743L687.224 254.815L686.937 254.94L686.668 255.12L686.328 255.137L685.987 255.173L685.79 255.568L685.468 255.639L685.217 255.836L684.822 255.729L684.536 255.89L684.195 255.908L683.944 256.123L683.64 256.231L683.389 256.499L683.084 256.589L682.798 256.75L682.493 256.876H682.152L681.866 257.037L681.489 256.894L681.203 257.091L680.898 257.198L680.593 257.306L680.343 257.539L679.966 257.467L679.698 257.664L679.411 257.79L679.07 257.825L678.766 257.915L678.461 257.987L678.139 258.076L677.888 258.327H677.547L677.189 258.291L676.938 258.578L676.58 258.47L676.293 258.632L675.97 258.65L675.701 258.901L675.361 258.865L675.11 259.205L674.805 259.277L674.447 259.205L674.125 259.223L673.82 259.348L673.515 259.474L673.193 259.492L672.924 259.725L672.601 259.796L672.261 259.743L671.903 259.671L671.616 259.814L671.311 259.904L671.025 260.137L670.666 260.047L670.379 260.191L670.093 260.388L669.752 260.334L669.43 260.352L669.071 260.28L668.767 260.37L668.516 260.764L668.157 260.585H667.835L667.512 260.675L667.19 260.639L666.921 260.997L666.598 261.033L666.276 261.051L665.917 260.872L665.613 260.997L665.308 261.087L664.968 261.069L664.663 261.158L664.376 261.409L664.036 261.355L663.695 261.23L663.391 261.355L663.104 261.642L662.764 261.499L662.423 261.463L662.101 261.499L661.796 261.588L661.491 261.732L661.151 261.588L660.828 261.606L660.506 261.624L660.219 261.965L659.879 261.875L659.538 261.714L659.234 261.857L658.929 262.108L658.606 262.18L658.266 261.983L657.961 262.162L657.639 262.18H657.316L656.994 262.108L656.689 262.323L656.348 262.108L656.026 262.287L655.703 262.162L655.381 262.18L655.058 262.144L654.736 262.359L654.431 262.413L654.091 262.305H653.768L653.446 262.431L653.141 262.502L652.8 262.251H652.478L652.155 262.305L651.833 262.395L651.51 262.18L651.188 262.323L650.865 262.287L650.543 262.538L650.22 262.234H649.897L649.575 262.269L649.252 262.287L648.93 262.484L648.607 262.234L648.285 262.413L647.962 262.502L647.64 262.538L647.317 262.466L646.995 262.359L646.672 262.377L646.367 262.126L646.045 262.144L645.704 262.395L645.4 262.198L645.077 262.216L644.755 262.269H644.414L644.092 262.377L643.787 262.144L643.447 262.323L643.142 262.09L642.801 262.287L642.497 261.983L642.174 262.036L641.852 262.018L641.547 261.893L641.207 262.036L640.884 262.072L640.561 261.911L640.221 262.09L639.916 261.965L639.612 261.714L639.289 261.839L638.967 261.714L638.644 261.75L638.322 261.786L638.017 261.517L637.676 261.696L637.354 261.714L637.067 261.409L636.727 261.427L636.422 261.391L636.117 261.212H635.795L635.472 261.176L635.15 261.14L634.827 261.123L634.505 261.105L634.182 261.069L633.86 261.051L633.573 260.818L633.232 260.854L632.928 260.728L632.569 260.961L632.247 260.925L631.96 260.71L631.638 260.675L631.351 260.477L630.975 260.639L630.724 260.298L630.419 260.209L630.061 260.28L629.72 260.37L629.434 260.155L629.111 260.119L628.824 259.94L628.484 259.976L628.125 260.065L627.892 259.635L627.516 259.886L627.265 259.564L626.943 259.51L626.584 259.617L626.298 259.42L625.993 259.313L625.635 259.42L625.402 259.026L625.007 259.259L624.703 259.151L624.434 258.918L624.058 259.026L623.825 258.685H623.484L623.198 258.524L622.839 258.596L622.552 258.453L622.248 258.345L621.907 258.327L621.603 258.22L621.298 258.166L621.011 257.951L620.725 257.843L620.384 257.79L620.115 257.61L619.757 257.664L619.452 257.521L619.184 257.324L618.879 257.234L618.556 257.18L618.216 257.162L618.019 256.75L617.696 256.714L617.392 256.589L617.123 256.428L616.8 256.356L616.478 256.284L616.173 256.213L615.851 256.123L615.546 256.051L615.295 255.783L614.973 255.693L614.596 255.8L614.327 255.603L614.005 255.55L613.718 255.406L613.449 255.209L613.199 254.958L612.876 254.887L612.535 254.869L612.213 254.815L611.908 254.689L611.604 254.564L611.353 254.367L611.12 254.098L610.833 253.955L610.457 253.991L610.134 253.919L609.883 253.686L609.543 253.668L609.31 253.381L609.095 253.095L608.719 253.13L608.45 252.969L608.217 252.682L607.805 252.79L607.5 252.682L607.231 252.521L607.07 252.127L606.694 252.145L606.461 251.876L606.138 251.822L605.869 251.625L605.547 251.554L605.314 251.321L604.92 251.374L604.723 251.034L604.49 250.783L604.095 250.855L603.952 250.46L603.576 250.443L603.307 250.281L602.931 250.299L602.698 250.048L602.375 249.977L602.196 249.636L601.838 249.6L601.64 249.278L601.408 249.063L600.977 249.152L600.888 248.686L600.529 248.633L600.207 248.543L600.028 248.238L599.705 248.149L599.49 247.88L599.203 247.719L598.809 247.737L598.505 247.611L598.379 247.217L598.146 246.984L597.698 247.092L597.501 246.805L597.304 246.5L597.071 246.285H596.677L596.498 245.981L596.211 245.837L595.978 245.604L595.53 245.694L595.333 245.407L595.189 245.067L594.777 245.085L594.688 244.637L594.222 244.726L594.168 244.278L593.774 244.242L593.63 243.92L593.29 243.83L592.95 243.759L592.645 243.597L592.519 243.239L592.251 243.078L592.072 242.773H591.659L591.498 242.468L591.193 242.325L591.086 241.949L590.781 241.823L590.513 241.626L590.19 241.519L589.993 241.25L589.634 241.178L589.563 240.748L589.115 240.784L588.828 240.623L588.577 240.426L588.452 240.067L588.273 239.78H587.86L587.825 239.315L587.377 239.35L587.341 238.902H586.911L586.785 238.562L586.409 238.508L586.14 238.311L586.033 237.953L585.692 237.845L585.621 237.433L585.28 237.343L584.957 237.2L584.814 236.895L584.617 236.627L584.474 236.322L584.169 236.179L583.829 236.053L583.685 235.731L583.47 235.498L583.166 235.354L582.968 235.104L582.807 234.799L582.395 234.763L582.323 234.387L582.18 234.064L581.911 233.867L581.624 233.706L581.248 233.634L581.194 233.24L580.979 232.989L580.639 232.864L580.603 232.451L580.209 232.38L580.012 232.129L579.761 231.932L579.528 231.699L579.42 231.358L579.205 231.125L578.811 231.036L578.739 230.677L578.417 230.534L578.363 230.158L578.041 229.996L577.933 229.674L577.611 229.531L577.36 229.316L577.288 228.957L577.091 228.688L576.948 228.384L576.5 228.348L576.267 228.115L576.105 227.828L576.034 227.47L575.837 227.219L575.568 227.022L575.46 226.699L575.281 226.431L575.012 226.233L574.708 226.054L574.582 225.75L574.385 225.499L574.152 225.266L573.991 224.997L573.74 224.782L573.597 224.477L573.274 224.316L573.238 223.94L572.862 223.832L572.826 223.438L572.701 223.133L572.539 222.865L572.235 222.685L572.127 222.363L571.966 222.076L571.823 221.789L571.643 221.521L571.357 221.341L571.285 220.983L570.98 220.804L570.658 220.625L570.712 220.212L570.281 220.123L570.12 219.836L569.905 219.585L569.851 219.245L569.618 218.994L569.493 218.707L569.242 218.474V218.098L569.117 217.793L568.902 217.542L568.722 217.292L568.633 216.951L568.239 216.826L568.006 216.593L567.862 216.306L567.737 216.001L567.54 215.733L567.325 215.5L567.432 215.052L567.164 214.837L567.056 214.514L566.787 214.317L566.5 214.102L566.429 213.779L566.232 213.511L566.268 213.134L565.981 212.919L565.712 212.686L565.837 212.256L565.443 212.113L565.246 211.844L565.121 211.557V211.181L565.031 210.859L564.744 210.644L564.816 210.249L564.583 210.016L564.314 209.783L564.099 209.533L564.153 209.138L563.813 208.959L563.795 208.601L563.615 208.332L563.365 208.099V207.741L563.078 207.508L563.132 207.131L563.024 206.827L562.809 206.576L562.755 206.235L562.379 206.056L562.415 205.698L562.289 205.393L562.128 205.106L562.182 204.748L561.913 204.515L561.859 204.175L561.519 203.977L561.698 203.547L561.232 203.386L561.447 202.956L560.999 202.795V202.436L560.91 202.132L560.659 201.881L560.605 201.558L560.659 201.182L560.551 200.895L560.265 200.644L560.049 200.394L560.211 199.981L560.157 199.659L559.96 199.39V199.05L559.834 198.745L559.566 198.512L559.369 198.225L559.171 197.957L559.333 197.562L559.225 197.258L559.046 196.989L558.974 196.666L558.652 196.433L558.885 196.021L558.813 195.699L558.67 195.412L558.258 195.197V194.874L558.132 194.57L558.204 194.211L558.078 193.907L558.025 193.584L558.06 193.244L557.827 192.975L557.702 192.67L557.595 192.366L557.487 192.061L557.433 191.756L557.541 191.38L557.254 191.129L557.362 190.771L557.2 190.484L557.093 190.18L556.788 189.911L556.985 189.534L556.86 189.23L556.716 188.943L556.788 188.585L556.591 188.316L556.681 187.958L556.627 187.635L556.215 187.402L556.484 187.008L556.394 186.703L556.053 186.452L555.982 186.13L556.143 185.771L555.91 185.485L555.821 185.18L555.892 184.84L555.659 184.553L555.785 184.194L555.623 183.908L555.731 183.549L555.659 183.245L555.534 182.94V182.6L555.408 182.295L555.48 181.972L555.373 181.65L555.408 181.327L555.032 181.059L555.211 180.7L554.996 180.413L554.907 180.091L555.068 179.75L554.907 179.446L555.086 179.087L554.835 178.801L554.763 178.478L554.71 178.174L554.727 177.851L554.781 177.51L554.584 177.206L554.512 176.901L554.656 176.561L554.566 176.238L554.459 175.934L554.584 175.593L554.602 175.271L554.53 174.948L554.262 174.643V174.321L554.423 173.98L554.297 173.676L554.19 173.353L554.351 173.031L554.226 172.708L554.297 172.386L554.279 172.063L554.351 171.74L554.262 171.418L554.154 171.095L554.226 170.773L553.993 170.45L554.279 170.128L554.297 169.805L554.244 169.483L554.046 169.16L554.011 168.837L553.939 168.515L554.226 168.192L554.262 167.87L554.046 167.547L554.029 167.225L553.939 166.902L553.975 166.58L554.172 166.257L553.993 165.935L554.244 165.612L554.208 165.289L554.172 164.967L554.1 164.644L554.297 164.322L554.046 163.999L554.262 163.677L554.315 163.354L554.262 163.032L554.029 162.709L554.154 162.386L554.172 162.064V161.741L554.154 161.419L554.297 161.114L554.279 160.774L554.297 160.451L554.423 160.147L554.172 159.806L554.351 159.501L554.369 159.179L554.315 158.838L554.548 158.534L554.315 158.193L554.656 157.907L554.441 157.566L554.423 157.226L554.53 156.921L554.692 156.616L554.512 156.276V155.953L554.71 155.649L554.763 155.326L554.799 155.004L554.978 154.699L554.96 154.376L554.763 154.018L555.068 153.731L555.05 153.409L554.925 153.068L555.193 152.782L555.014 152.423L555.373 152.154L555.408 151.832L555.175 151.474L555.247 151.151L555.265 150.828L555.319 150.524L555.39 150.201L555.408 149.879L555.498 149.556L555.767 149.287L555.588 148.929L555.91 148.66L556.018 148.356L555.731 147.961L555.821 147.657L556.018 147.37L556.197 147.065L556.215 146.743L556.197 146.42L556.466 146.134L556.448 145.811L556.609 145.524L556.448 145.148L556.716 144.879L556.806 144.575L556.842 144.252L556.806 143.912L556.932 143.607L556.896 143.266L557.147 142.998L557.272 142.693L557.075 142.317L557.379 142.066L557.523 141.761L557.433 141.403L557.577 141.116L557.702 140.811L557.845 140.507L557.863 140.184L557.899 139.862L558.096 139.593L558.114 139.252L558.132 138.912L558.24 138.625L558.186 138.267L558.526 138.034L558.508 137.694L558.813 137.443L558.759 137.102L558.938 136.815L559.028 136.493L558.956 136.135L559.154 135.866L559.386 135.597L559.243 135.221L559.602 135.006L559.566 134.647L559.548 134.289L559.727 134.02L559.924 133.751L559.906 133.393L559.942 133.07L560.282 132.837L560.408 132.551L560.587 132.282L560.426 131.87L560.802 131.673L560.945 131.386L560.963 131.045L561.071 130.741L561.232 130.454L561.447 130.185L561.268 129.773L561.698 129.594L561.501 129.164L561.716 128.913L561.859 128.626L562.146 128.393L562.218 128.071L562.325 127.766L562.397 127.444L562.666 127.211V126.852L562.917 126.619L562.935 126.279L562.97 125.938L563.347 125.759L563.275 125.365L563.383 125.06L563.598 124.792L563.669 124.487L563.902 124.236L564.099 123.967L564.314 123.716L564.243 123.322L564.601 123.143L564.78 122.874V122.516L564.834 122.175L565.174 121.996V121.62L565.569 121.476L565.64 121.136L565.694 120.813L565.891 120.545L566.142 120.312L566.07 119.9L566.339 119.684L566.357 119.326L566.626 119.111L566.769 118.824L566.966 118.556L567.164 118.305L567.307 118.018L567.432 117.713L567.719 117.516L567.683 117.122L567.827 116.817L568.095 116.602L568.346 116.387L568.472 116.083L568.74 115.868L568.794 115.527L568.991 115.276L569.153 114.99L569.332 114.721L569.403 114.38L569.726 114.201L569.941 113.95L570.138 113.717L570.174 113.359L570.335 113.072L570.694 112.929V112.517L571.088 112.409L571.16 112.069L571.213 111.71L571.464 111.495L571.805 111.334L572.002 111.083V110.689L572.181 110.42L572.503 110.259V109.847L572.934 109.775L573.149 109.524L573.31 109.237L573.417 108.933L573.614 108.664L573.847 108.449L574.134 108.27V107.858L574.493 107.732L574.528 107.338L574.636 107.015L574.905 106.818L575.066 106.532L575.263 106.281L575.568 106.102L575.639 105.761L576.141 105.743L576.177 105.367L576.517 105.224L576.732 104.973L576.912 104.722L576.965 104.328L577.163 104.095L577.395 103.862L577.682 103.682L577.987 103.521L578.148 103.234L578.256 102.894L578.453 102.643L578.793 102.518L579.026 102.285L579.116 101.926L579.385 101.729L579.546 101.46L579.707 101.174L579.976 100.959L580.245 100.779L580.549 100.618L580.693 100.314L581.033 100.206V99.7402L581.427 99.6864L581.499 99.2922L581.911 99.2743L582.126 99.0234L582.252 98.7008L582.431 98.4141L582.861 98.3783L583.022 98.0916L583.183 97.7869L583.363 97.5182L583.667 97.3569L583.864 97.106L584.097 96.891L584.312 96.6401L584.671 96.5684L584.886 96.2996L585.119 96.0846L585.298 95.7979L585.531 95.5829L585.692 95.2961L586.086 95.2424L586.176 94.8661L586.463 94.7048L586.678 94.4539L587.072 94.4181L587.341 94.2389L587.556 93.988L587.735 93.7013L587.914 93.4146L588.147 93.1996L588.398 93.0025L588.649 92.7695L589.025 92.7337L589.312 92.5724L589.402 92.1782L589.688 92.0348L589.975 91.8556L590.244 91.6764L590.513 91.5151L590.674 91.1747L590.871 90.9059L591.104 90.7088L591.588 90.7984L591.785 90.5296L592.018 90.2966L592.233 90.0278L592.519 89.9024L592.842 89.7949L592.932 89.3469L593.344 89.3827L593.541 89.1139L593.899 89.0602L594.132 88.8093L594.276 88.4688L594.616 88.3972L594.777 88.0567H595.172L595.279 87.6446L595.745 87.7521L595.924 87.4474L596.121 87.1607L596.444 87.0711L596.731 86.9099L596.874 86.5515L597.25 86.5156H597.627L597.788 86.1752L598.003 85.9064L598.307 85.7988L598.558 85.5838L598.791 85.3509H599.168L599.472 85.2254L599.651 84.9029L599.884 84.652L600.171 84.5086H600.547L600.816 84.3474L601.103 84.1861L601.282 83.8456L601.658 83.8815L601.999 83.8277L602.088 83.326L602.519 83.4156L602.662 83.0213L602.967 82.9138L603.235 82.7346L603.504 82.5375L603.88 82.5734L604.149 82.3942L604.418 82.197L604.651 81.9641L605.081 82.0537L605.242 81.6774L605.565 81.6236L605.887 81.534L606.228 81.4803L606.515 81.3548L606.658 80.9068L606.945 80.7814L607.267 80.6918L607.643 80.7097L607.805 80.3334L608.109 80.208L608.522 80.3334L608.683 79.9034L609.005 79.8317H609.346L609.633 79.6525L609.955 79.5987L610.152 79.2583L610.546 79.3479L610.744 78.9715L611.066 78.9357L611.317 78.6669L611.711 78.7744L611.926 78.4698L612.32 78.5773L612.5 78.1652L612.93 78.3623L613.199 78.1831L613.467 78.0039L613.754 77.8426L614.13 77.8785L614.327 77.5201L614.722 77.6455L615.008 77.4842L615.277 77.305L615.528 77.0542L615.922 77.1617L616.191 77.0004L616.424 76.7137L616.747 76.6241L617.033 76.4807L617.32 76.3016L617.696 76.4091L617.929 76.1044L618.323 76.2657L618.521 75.8356L618.879 75.9073L619.148 75.6923L619.47 75.6385L619.847 75.7281L620.133 75.6206L620.366 75.2443L620.725 75.316L621.029 75.2264L621.352 75.1547L621.656 75.0472L621.979 75.0114L622.302 74.9755L622.57 74.7426L622.929 74.8322L623.215 74.6888L623.52 74.5634L623.825 74.4379L624.076 74.1154L624.398 74.0795L624.685 73.9541L625.025 73.9362L625.402 74.0795L625.724 74.0437L626.011 73.9362L626.298 73.757L626.566 73.5061L626.943 73.6316L627.265 73.6136L627.552 73.4344L627.821 73.1657L628.161 73.1836L628.502 73.2194H628.824L629.147 73.1836L629.434 72.9685L629.756 72.9148L630.043 72.7893L630.365 72.7177L630.67 72.5743L630.993 72.5922L631.333 72.6102L631.62 72.3772L631.924 72.3234L632.283 72.4489L632.605 72.431H632.928L633.25 72.3772L633.519 72.0726L633.878 72.2518L634.164 71.983L634.523 72.1622L634.827 72.0188L635.15 72.0367L635.472 72.0009L635.777 71.8038L636.1 71.8396L636.386 71.5529L636.745 71.8217L637.049 71.6963L637.354 71.5708L637.694 71.5887L637.999 71.4812L638.304 71.32L638.662 71.6246L638.967 71.4095L639.289 71.4454L639.594 71.2304L639.934 71.32L640.239 71.1945L640.579 71.3379L640.884 71.1049L641.207 71.0512L641.529 71.1408L641.852 71.0332L642.156 70.9257L642.497 71.0512L642.801 70.9257H643.124L643.464 71.087L643.787 71.1408H644.11L644.432 71.0691H644.755L645.077 70.9257L645.382 70.8899L645.722 70.9974L646.027 70.6928L646.349 70.7465L646.672 70.8361L646.995 70.7465L647.317 70.8182L647.64 70.6928L647.962 70.6211H648.285L648.607 70.7107L648.93 70.6928L649.252 70.8899L649.575 70.639L649.897 70.6749L650.22 70.8003L650.543 70.9436L650.865 70.7824L651.188 70.639L651.51 70.8003L651.833 70.7286L652.155 70.6749L652.478 70.6928L652.8 70.9974L653.123 70.9795L653.446 71.0332L653.768 70.8361L654.091 70.9616H654.413L654.754 70.7286L655.058 70.9974L655.381 70.8003L655.703 71.0691L656.026 70.8899L656.348 71.0332H656.671L656.976 71.2124L657.298 71.1945L657.639 71.0153L657.961 70.9257L658.266 71.1766L658.588 71.3379L658.929 71.0691H659.251L659.556 71.302L659.879 71.2483L660.183 71.4275L660.524 71.3379L660.828 71.5529L661.169 71.4095L661.491 71.32L661.796 71.6067L662.101 71.6963L662.441 71.5708L662.728 71.8038L663.104 71.535L663.409 71.6246L663.749 71.5887L664.036 71.7859H664.358L664.681 71.8755L664.968 72.0905L665.308 72.0546L665.667 71.8934L665.935 72.1442L666.24 72.3055L666.616 72.0546L666.921 72.2159H667.243L667.53 72.3951L667.817 72.6102L668.139 72.6818L668.48 72.5922L668.838 72.4668L669.143 72.5922L669.466 72.6281L669.716 73.0044L670.093 72.7893H670.415L670.684 73.0761H671.007L671.293 73.2911L671.598 73.3986L671.992 73.1657L672.297 73.2373L672.583 73.4344L672.888 73.5599L673.229 73.524L673.551 73.5957L673.82 73.7928L674.16 73.7749L674.483 73.8466L674.752 74.0975L675.038 74.2408L675.379 74.205L675.737 74.1691L676.024 74.3125L676.347 74.3663L676.597 74.635L676.974 74.5454L677.296 74.5634L677.529 74.9397L677.834 75.0114L678.192 74.9755L678.479 75.101L678.784 75.2085L679.142 75.1547L679.375 75.5131L679.68 75.5848L679.966 75.764L680.289 75.8177L680.611 75.8715L680.97 75.7998L681.185 76.1761L681.561 76.0686L681.848 76.2299L682.135 76.3732L682.403 76.6062L682.726 76.6599L683.013 76.7854L683.407 76.6779L683.64 76.9287L683.926 77.09L684.213 77.2334L684.518 77.3409L684.93 77.1975L685.217 77.323L685.396 77.753L685.701 77.8605L686.095 77.7351L686.417 77.8068L686.632 78.1473L686.991 78.1293L687.188 78.4877L687.618 78.3085L687.887 78.4698L688.138 78.7386L688.424 78.864L688.693 79.0432L689.034 79.0791L689.266 79.3658H689.607L689.894 79.5271L690.18 79.6704L690.521 79.7062L690.843 79.7779L691.058 80.0826L691.291 80.3513L691.668 80.2797L691.954 80.4589L692.277 80.5305L692.456 80.8889L692.886 80.7635L693.101 81.0502L693.334 81.3011L693.693 81.2832L693.997 81.4086L694.266 81.6057L694.499 81.8566L694.893 81.767L695.054 82.1612L695.323 82.3404L695.61 82.5017L696.022 82.4121L696.183 82.8063L696.47 82.9317L696.739 83.1289L697.079 83.1647L697.366 83.308L697.635 83.4872L697.975 83.5589L698.244 83.7202L698.513 83.9173L698.764 84.1323L698.997 84.3653L699.23 84.5982L699.606 84.5803L699.785 84.9208L700.054 85.1L700.466 85.0283L700.753 85.1896L701.022 85.3688L701.273 85.5838L701.434 85.9422L701.828 85.9243L702.007 86.2289L702.222 86.4798L702.491 86.6769L702.867 86.6948L703.19 86.7665L703.369 87.089L703.656 87.2324L703.889 87.4654L704.086 87.7341L704.355 87.9313L704.695 88.0029L705.036 88.0925L705.233 88.3434L705.448 88.6122L705.699 88.8093L706.111 88.7914L706.236 89.1677L706.433 89.4365L706.899 89.3648L706.989 89.7949L707.204 90.0099L707.455 90.2249L707.939 90.1174L708.1 90.4221L708.297 90.7088L708.53 90.9417L708.799 91.103L709.121 91.2464L709.354 91.4435L709.515 91.766H709.945L710.143 92.0169L710.393 92.214L710.662 92.3932L710.895 92.6262L711.092 92.8949L711.451 92.9666L711.648 93.2354L711.863 93.4863L712.006 93.7909L712.311 93.9522L712.615 94.0955L712.938 94.221L713.117 94.4898L713.404 94.651L713.673 94.8302L713.727 95.2603L714.121 95.2961L714.228 95.6725L714.515 95.8337L714.64 96.1742L715.035 96.21L715.178 96.5505L715.518 96.6401L715.769 96.8551L716.056 97.0164L716.235 97.3031L716.504 97.4823L716.486 97.9482L716.934 97.9661L716.988 98.3783L717.239 98.5754L717.4 98.8621L717.669 99.0592L718.045 99.1309L718.171 99.4714L718.439 99.6506L718.78 99.776L718.762 100.242L719.066 100.385L719.228 100.672L719.658 100.726L719.855 100.977L719.945 101.317L720.213 101.514L720.393 101.783L720.733 101.926L720.751 102.338L721.02 102.536L721.289 102.733L721.665 102.822L721.719 103.199L721.987 103.396L722.167 103.665L722.22 104.041L722.471 104.238L722.722 104.453L723.08 104.578L723.278 104.829L723.385 105.17L723.69 105.331L723.708 105.743L724.156 105.779L724.245 106.137L724.406 106.424L724.657 106.621L724.98 106.782L725.177 107.033L725.105 107.499L725.517 107.589L725.553 107.965L725.715 108.252L725.948 108.467L726.109 108.754L726.288 109.022L726.664 109.148L726.79 109.452L726.861 109.811L727.041 110.062L727.453 110.169L727.65 110.42L727.632 110.832L727.972 110.994L728.205 111.209L728.188 111.621L728.6 111.728V112.122L728.743 112.409L729.101 112.553L729.263 112.839L729.406 113.126L729.549 113.413L729.711 113.699L730.015 113.879L730.105 114.201L730.427 114.38L730.409 114.775L730.714 114.972L730.875 115.258L731.019 115.527L731.288 115.742L731.431 116.047L731.592 116.316L731.556 116.728L731.861 116.925L731.968 117.23L732.291 117.409L732.452 117.695L732.434 118.072L732.542 118.376L732.99 118.502V118.878L733.312 119.057L733.474 119.326L733.42 119.738L733.545 120.025L733.94 120.186L734.083 120.473V120.849L734.316 121.082L734.531 121.333L734.513 121.709L734.854 121.889L734.836 122.265L735.086 122.498L735.015 122.892L735.355 123.089L735.409 123.412L735.642 123.663L735.857 123.913L736.036 124.182L736.126 124.505L736.215 124.809L736.377 125.096V125.455L736.628 125.687V126.046L736.789 126.333L737.04 126.566L737.219 126.834L737.308 127.157L737.237 127.533L737.434 127.802L737.47 128.142L737.828 128.34L737.936 128.644L737.989 128.967L738.169 129.236L738.133 129.594L738.276 129.899L738.563 130.132L738.617 130.436L738.778 130.723L738.993 130.992L738.885 131.386L739.298 131.565L739.19 131.959L739.423 132.21L739.638 132.479L739.548 132.855L739.584 133.178L739.961 133.393L740.104 133.68L739.907 134.092L740.086 134.361L740.229 134.647L740.193 135.006L740.373 135.292L740.498 135.579L740.641 135.884L740.946 136.117L740.839 136.493L740.892 136.815L741.018 137.102L741.34 137.353L741.233 137.711L741.269 138.034L741.305 138.374L741.681 138.589L741.788 138.894L741.735 139.252L741.932 139.521L742.093 139.826L741.842 140.22L742.218 140.453L742.344 140.758L742.111 141.152L742.236 141.457L742.416 141.725L742.684 141.994L742.451 142.388L742.738 142.657L742.613 143.016L742.72 143.32L743.007 143.571L743.096 143.894L743.222 144.18L743.258 144.521L743.186 144.861L743.383 145.148L743.294 145.488L743.419 145.793L743.347 146.151L743.437 146.456L743.491 146.779L743.67 147.065L743.795 147.37L743.975 147.657L744.046 147.979L743.795 148.356L744.028 148.624L744.064 148.947L744.01 149.287L744.064 149.61L744.154 149.915L744.279 150.219L744.458 150.524L744.405 150.864V151.187L744.673 151.474L744.566 151.814V152.137L744.584 152.459L744.888 152.746L744.691 153.086L744.853 153.391L744.655 153.749L744.96 154.036L744.924 154.359L744.996 154.681L744.942 155.004L744.978 155.326L745.068 155.649L745.283 155.953L745.05 156.294L745.103 156.616L745.121 156.939L745.354 157.244L745.444 157.548L745.157 157.907L745.283 158.211L745.462 158.516L745.336 158.856L745.283 159.179L745.408 159.501L745.551 159.806L745.498 160.129L745.695 160.451L745.623 160.774L745.551 161.096L745.677 161.419L745.39 161.759L745.48 162.064L745.587 162.386L745.48 162.709L745.713 163.032L745.659 163.354L745.713 163.677L745.749 163.999L745.766 164.322L745.677 164.644L745.784 164.967L745.551 165.289L745.659 165.612L745.749 165.935L745.784 166.257L745.659 166.58Z" fill="#64B4FA"/>
</g>
</svg>
