<svg width="118" height="145" viewBox="0 0 118 145" fill="none" xmlns="http://www.w3.org/2000/svg">
<path d="M117.819 88L117.934 88.2958L118 88.5916L117.967 88.8874L117.786 89.1832L117.984 89.479L117.885 89.7748L117.737 90.0706L117.918 90.3664L117.836 90.6622L117.852 90.958L117.786 91.2538V91.5496L117.606 91.8289L117.671 92.1412L117.622 92.4205L117.737 92.7328L117.638 93.0121L117.556 93.3079L117.655 93.6202L117.606 93.8995L117.803 94.2118L117.491 94.4911L117.573 94.7869L117.507 95.0827L117.408 95.3621L117.523 95.6743L117.606 95.9866L117.408 96.2659L117.507 96.5617L117.556 96.874L117.441 97.1533L117.326 97.4327L117.244 97.7285L117.228 98.0243L117.178 98.3201L117.261 98.6159L117.063 98.8952L117.244 99.2239L117.162 99.5033L117.047 99.7826L117.08 100.095L117.145 100.391L116.817 100.654L116.833 100.949L116.702 101.229L116.718 101.525L116.866 101.853L116.8 102.149V102.445L116.768 102.741L116.62 103.004L116.636 103.316L116.57 103.612L116.587 103.907L116.324 104.154L116.176 104.433L116.373 104.778L116.307 105.058L116.077 105.321L115.995 105.6L116.012 105.896L116.094 106.224L115.749 106.455L115.798 106.767L115.814 107.063L115.847 107.375L115.765 107.671L115.732 107.966L115.42 108.196L115.321 108.476L115.371 108.788L115.354 109.084L115.321 109.38L115.108 109.643L114.976 109.906L114.943 110.201L114.911 110.497L114.828 110.793L114.911 111.122L114.861 111.417L114.648 111.664V111.96L114.565 112.255L114.401 112.502L114.22 112.765L114.138 113.044L113.99 113.307L114.105 113.652V113.965L113.744 114.162L113.727 114.458V114.77L113.744 115.098L113.563 115.345L113.415 115.608L113.333 115.887L113.218 116.167L113.004 116.413L113.119 116.758L112.906 117.005L113.004 117.333L112.758 117.563L112.791 117.892L112.495 118.106L112.528 118.434L112.347 118.681L112.199 118.944L112.248 119.272L111.969 119.486L111.92 119.782L111.723 120.028L111.591 120.291L111.69 120.653L111.345 120.817L111.377 121.162L111.213 121.409L110.999 121.639L111.147 122.017L110.852 122.214L110.72 122.477L110.654 122.773L110.572 123.052L110.375 123.299L110.194 123.545L110.26 123.89L110.063 124.137L110.03 124.432L109.866 124.679V125.008L109.471 125.156L109.52 125.517L109.422 125.796L109.34 126.076L109.175 126.322L108.88 126.503L108.945 126.865L108.847 127.144L108.715 127.423L108.584 127.686L108.189 127.818L108.206 128.163L107.943 128.36L107.959 128.689L107.811 128.952L107.532 129.132V129.477L107.401 129.74L107.088 129.905L107.121 130.25L106.973 130.513L106.825 130.776L106.595 130.973L106.513 131.269L106.415 131.548L106.069 131.696L106.02 132.008V132.353L105.774 132.551L105.609 132.797L105.429 133.027L105.215 133.257L105.199 133.586L105.116 133.882L104.919 134.112L104.673 134.309L104.64 134.638L104.393 134.818L104.065 134.966L104.13 135.361L103.982 135.624L103.802 135.854L103.506 136.018L103.276 136.215V136.577L102.98 136.725L102.849 136.987L102.832 137.349L102.52 137.48L102.536 137.858L102.257 138.023L102.06 138.236L102.027 138.582L101.6 138.647L101.435 138.894L101.32 139.173L101.156 139.42L101.057 139.715L100.762 139.863L100.794 140.241L100.581 140.455L100.219 140.553L100.236 140.931L99.8741 141.046L99.7755 141.326L99.5948 141.572L99.3811 141.77L99.3647 142.131L99.0032 142.23L98.8717 142.493L98.6088 142.657L98.4444 142.903L98.428 143.281L98.0336 143.347L97.9515 143.643L97.6885 143.824V144.202L97.4256 144.366L97.1298 144.514L97.1134 144.892L96.7683 144.974L96.6039 145.221L96.4067 145.434L96.226 145.664L96.1438 145.993L95.7987 146.092L95.7494 146.437L95.4207 146.535L95.2235 146.765L95.1085 147.061L94.9442 147.308L94.6319 147.423L94.4676 147.669L94.1718 147.801L94.0239 148.063L93.8431 148.294L93.6131 148.491L93.4323 148.721L93.3009 149L92.9229 149.066L92.7257 149.28V149.69L92.4627 149.838L92.1176 149.92L91.9862 150.216L91.8712 150.512L91.5589 150.611L91.296 150.759L91.0659 150.956L91.0495 151.367L90.8523 151.58L90.6058 151.761L90.3264 151.892L90.1128 152.09L89.9978 152.402L89.6362 152.435L89.5376 152.78H89.1432L88.9625 153.026L88.8967 153.388L88.5681 153.454L88.4695 153.799L88.1737 153.914L88.0258 154.193L87.7464 154.325L87.4999 154.472L87.237 154.637L86.9576 154.752L86.744 154.965L86.629 155.294L86.3496 155.409L86.1524 155.639L85.9716 155.886L85.643 155.951L85.4458 156.182L85.2979 156.477L85.0021 156.576L84.6734 156.642L84.6077 157.036L84.1804 156.954L84.1147 157.365L83.7203 157.332L83.5888 157.644L83.3587 157.825L83.1451 158.038L82.8986 158.203L82.7014 158.449L82.4878 158.647L82.192 158.729L81.9126 158.844L81.7483 159.123L81.4689 159.238L81.1238 159.287L81.0088 159.632H80.6473L80.4336 159.846L80.2528 160.093L80.0228 160.29L79.8256 160.503L79.4148 160.438L79.2833 160.783L79.1025 161.029L78.7246 160.996L78.4781 161.177L78.2809 161.374L78.0344 161.539L77.7714 161.703L77.5249 161.851L77.2456 161.966L77.0155 162.163L76.7033 162.229L76.5882 162.59L76.3253 162.738L75.9802 162.722L75.783 162.952L75.4708 163.018L75.3722 163.445L75.0107 163.396L74.7642 163.56L74.5505 163.774L74.3369 164.004L73.9425 163.938L73.8275 164.3L73.4331 164.234L73.2359 164.464L72.9894 164.645L72.71 164.727L72.4635 164.908L72.1513 164.94L71.9048 165.105L71.7076 165.351L71.4446 165.499L71.1817 165.631L70.9681 165.861L70.5901 165.762L70.3436 165.926L70.13 166.189L69.8342 166.239L69.6698 166.584L69.2919 166.502L69.0947 166.732L68.8153 166.863H68.4867L68.3223 167.192H67.9937L67.6979 167.241L67.4514 167.405L67.2542 167.701L66.9255 167.685L66.7119 167.948L66.4489 168.079L66.1367 168.096L65.8738 168.227H65.5451L65.3479 168.49L65.0685 168.605L64.7234 168.539L64.5262 168.852L64.2304 168.917L63.9675 169.032L63.721 169.197L63.4088 169.213L63.0966 169.246L62.9158 169.607L62.62 169.673L62.3899 169.854L62.0284 169.755L61.7654 169.903L61.4532 169.92L61.2232 170.117L60.9438 170.216L60.7137 170.462L60.4344 170.544L60.1714 170.692L59.8921 170.807H59.5798L59.3169 170.955L58.9718 170.824L58.7089 171.004L58.4295 171.103L58.1501 171.202L57.9201 171.415L57.575 171.349L57.3285 171.53L57.0656 171.645L56.7533 171.678L56.4739 171.76L56.1946 171.826L55.8988 171.908L55.6687 172.138H55.3565L55.0278 172.105L54.7978 172.368L54.4691 172.27L54.2062 172.418L53.9104 172.434L53.6639 172.664L53.3516 172.631L53.1216 172.943L52.8422 173.009L52.5135 172.943L52.2178 172.96L51.9384 173.075L51.659 173.19L51.3632 173.206L51.1167 173.42L50.8209 173.486L50.5087 173.436L50.18 173.371L49.9171 173.502L49.6377 173.584L49.3748 173.798L49.0461 173.716L48.7832 173.847L48.5203 174.028L48.208 173.979L47.9122 173.995L47.5836 173.929L47.3042 174.012L47.0741 174.373L46.7455 174.209H46.4497L46.1539 174.291L45.8581 174.258L45.6116 174.587L45.3158 174.62L45.02 174.636L44.6913 174.472L44.412 174.587L44.1326 174.669L43.8204 174.652L43.541 174.735L43.2781 174.965L42.9658 174.915L42.6536 174.8L42.3742 174.915L42.1113 175.178L41.7991 175.047L41.4868 175.014L41.191 175.047L40.9117 175.129L40.6323 175.261L40.3201 175.129L40.0243 175.145L39.7285 175.162L39.4655 175.474L39.1533 175.392L38.8411 175.244L38.5617 175.376L38.2824 175.606L37.9866 175.671L37.6743 175.491L37.395 175.655L37.0992 175.671H36.8034L36.5076 175.606L36.2282 175.803L35.916 175.606L35.6202 175.77L35.3244 175.655L35.0286 175.671L34.7328 175.638L34.437 175.836L34.1576 175.885L33.8454 175.786H33.5496L33.2538 175.901L32.9744 175.967L32.6622 175.737H32.3664L32.0706 175.786L31.7748 175.869L31.479 175.671L31.1832 175.803L30.8874 175.77L30.5916 176L30.2958 175.721H30L29.7042 175.753L29.4084 175.77L29.1126 175.951L28.8168 175.721L28.521 175.885L28.2252 175.967L27.9294 176L27.6336 175.934L27.3378 175.836L27.042 175.852L26.7627 175.622L26.4669 175.638L26.1546 175.869L25.8753 175.688L25.5795 175.704L25.2837 175.753H24.9714L24.6756 175.852L24.3963 175.638L24.084 175.803L23.8047 175.589L23.4924 175.77L23.2131 175.491L22.9173 175.54L22.6215 175.523L22.3421 175.408L22.0299 175.54L21.7341 175.573L21.4383 175.425L21.1261 175.589L20.8467 175.474L20.5673 175.244L20.2715 175.359L19.9757 175.244L19.6799 175.277L19.3841 175.31L19.1048 175.063L18.7925 175.228L18.4967 175.244L18.2338 174.965L17.9216 174.981L17.6422 174.948L17.3628 174.784H17.067L16.7712 174.751L16.4754 174.718L16.1796 174.702L15.8839 174.685L15.5881 174.652L15.2923 174.636L15.0293 174.422L14.7171 174.455L14.4377 174.34L14.1091 174.554L13.8133 174.521L13.5503 174.324L13.2545 174.291L12.9916 174.11L12.6465 174.258L12.4164 173.946L12.1371 173.864L11.8084 173.929L11.4962 174.012L11.2332 173.814L10.9374 173.782L10.6745 173.617L10.3623 173.65L10.0336 173.732L9.81998 173.338L9.47488 173.568L9.24483 173.272L8.94902 173.223L8.62035 173.321L8.35743 173.141L8.07806 173.042L7.7494 173.141L7.53576 172.779L7.17423 172.993L6.89487 172.894L6.64837 172.681L6.30327 172.779L6.08964 172.467H5.7774L5.51448 172.319L5.18581 172.385L4.92287 172.253L4.64351 172.155L4.33128 172.138L4.05192 172.04L3.77255 171.99L3.50962 171.793L3.24669 171.695L2.93445 171.645L2.68796 171.481L2.35929 171.53L2.07993 171.399L1.83343 171.218L1.55407 171.136L1.25827 171.086L0.946037 171.07L0.76527 170.692L0.469467 170.659L0.190105 170.544L-0.0563927 170.396L-0.352192 170.331L-0.647991 170.265L-0.927361 170.199L-1.22315 170.117L-1.50252 170.051L-1.73259 169.805L-2.02838 169.723L-2.37348 169.821L-2.61998 169.64L-2.91578 169.591L-3.17871 169.46L-3.42521 169.279L-3.65527 169.049L-3.95107 168.983L-4.26331 168.967L-4.5591 168.917L-4.83847 168.802L-5.11784 168.687L-5.3479 168.506L-5.56153 168.26L-5.82446 168.128L-6.16956 168.161L-6.46536 168.096L-6.69542 167.882L-7.00766 167.866L-7.22129 167.603L-7.41849 167.34L-7.76358 167.373L-8.01008 167.225L-8.22372 166.962L-8.60168 167.06L-8.88104 166.962L-9.12754 166.814L-9.27544 166.452L-9.62054 166.469L-9.83417 166.222L-10.13 166.173L-10.3765 165.992L-10.6723 165.926L-10.8859 165.713L-11.2474 165.762L-11.4282 165.45L-11.6418 165.22L-12.0034 165.286L-12.1348 164.924L-12.4799 164.908L-12.7264 164.76L-13.0715 164.776L-13.2852 164.546L-13.581 164.48L-13.7453 164.168L-14.074 164.135L-14.2547 163.839L-14.4683 163.642L-14.8627 163.724L-14.9449 163.297L-15.2736 163.248L-15.5694 163.166L-15.7337 162.886L-16.0295 162.804L-16.2267 162.558L-16.4896 162.41L-16.8512 162.426L-17.1305 162.311L-17.2456 161.95L-17.4592 161.736L-17.87 161.835L-18.0508 161.572L-18.2316 161.292L-18.4452 161.095H-18.8067L-18.9711 160.816L-19.234 160.684L-19.4476 160.471L-19.8584 160.553L-20.0392 160.29L-20.1707 159.978L-20.5486 159.994L-20.6308 159.583L-21.0581 159.665L-21.1074 159.255L-21.4689 159.222L-21.6004 158.926L-21.9126 158.844L-22.2248 158.778L-22.5042 158.63L-22.6192 158.301L-22.8657 158.154L-23.0301 157.874H-23.408L-23.5559 157.595L-23.8353 157.463L-23.9339 157.118L-24.2133 157.003L-24.4598 156.822L-24.7556 156.724L-24.9363 156.477L-25.265 156.412L-25.3307 156.017L-25.7416 156.05L-26.0045 155.902L-26.2345 155.721L-26.3496 155.393L-26.5139 155.13H-26.8919L-26.9247 154.703L-27.3356 154.735L-27.3684 154.325H-27.7628L-27.8779 154.012L-28.223 153.963L-28.4695 153.782L-28.5681 153.454L-28.8803 153.355L-28.946 152.977L-29.2583 152.895L-29.5541 152.763L-29.6855 152.484L-29.8663 152.238L-29.9978 151.958L-30.2771 151.827L-30.5894 151.712L-30.7208 151.416L-30.918 151.202L-31.1974 151.071L-31.3781 150.841L-31.526 150.561L-31.904 150.528L-31.9697 150.183L-32.1012 149.888L-32.3477 149.707L-32.6106 149.559L-32.9557 149.493L-33.005 149.132L-33.2022 148.902L-33.5145 148.787L-33.5473 148.409L-33.9089 148.343L-34.0896 148.113L-34.3197 147.932L-34.5333 147.718L-34.6319 147.406L-34.8291 147.193L-35.1907 147.11L-35.2564 146.782L-35.5522 146.65L-35.6015 146.305L-35.8973 146.157L-35.9959 145.861L-36.2917 145.73L-36.5218 145.533L-36.5875 145.204L-36.7683 144.958L-36.8997 144.678L-37.3106 144.645L-37.5242 144.432L-37.6721 144.169L-37.7378 143.84L-37.9186 143.61L-38.1651 143.429L-38.2637 143.134L-38.428 142.887L-38.6745 142.706L-38.9539 142.542L-39.0689 142.263L-39.2497 142.032L-39.4633 141.819L-39.6112 141.572L-39.8413 141.375L-39.9727 141.096L-40.2685 140.948L-40.3014 140.603L-40.6465 140.504L-40.6794 140.143L-40.7944 139.863L-40.9423 139.617L-41.2217 139.452L-41.3203 139.157L-41.4682 138.894L-41.5996 138.631L-41.764 138.384L-42.0269 138.22L-42.0926 137.891L-42.372 137.727L-42.6678 137.563L-42.6185 137.185L-43.0129 137.103L-43.1608 136.84L-43.358 136.61L-43.4073 136.297L-43.6209 136.067L-43.7359 135.804L-43.966 135.591V135.246L-44.081 134.966L-44.2782 134.736L-44.4426 134.506L-44.5247 134.194L-44.8863 134.079L-45.0999 133.865L-45.2314 133.602L-45.3464 133.323L-45.5272 133.076L-45.7244 132.863L-45.6258 132.452L-45.8723 132.255L-45.9709 131.959L-46.2174 131.778L-46.4803 131.581L-46.546 131.285L-46.7268 131.039L-46.6939 130.694L-46.9569 130.496L-47.2034 130.283L-47.0883 129.888L-47.4499 129.757L-47.6306 129.51L-47.7457 129.247V128.902L-47.8278 128.607L-48.0908 128.409L-48.025 128.048L-48.2387 127.834L-48.4852 127.621L-48.6824 127.39L-48.6331 127.029L-48.9453 126.865L-48.9617 126.536L-49.126 126.289L-49.3561 126.076V125.747L-49.619 125.534L-49.5697 125.188L-49.6683 124.909L-49.8655 124.679L-49.9148 124.367L-50.2599 124.202L-50.2271 123.874L-50.3421 123.594L-50.49 123.331L-50.4407 123.003L-50.6872 122.789L-50.7365 122.477L-51.0487 122.296L-50.8844 121.902L-51.3117 121.754L-51.1145 121.359L-51.5253 121.212V120.883L-51.6075 120.604L-51.8375 120.373L-51.8868 120.078L-51.8375 119.733L-51.9361 119.47L-52.1991 119.24L-52.3963 119.01L-52.2484 118.632L-52.2977 118.336L-52.4784 118.089V117.777L-52.5935 117.498L-52.84 117.284L-53.0207 117.021L-53.2015 116.775L-53.0536 116.413L-53.1522 116.134L-53.3165 115.887L-53.3823 115.591L-53.6781 115.378L-53.4644 115L-53.5302 114.704L-53.6616 114.441L-54.0396 114.244V113.948L-54.1546 113.669L-54.0889 113.34L-54.2039 113.061L-54.2532 112.765L-54.2204 112.453L-54.434 112.206L-54.549 111.927L-54.6476 111.647L-54.7462 111.368L-54.7955 111.089L-54.6969 110.744L-54.9599 110.514L-54.8613 110.185L-55.0092 109.922L-55.1077 109.643L-55.3871 109.396L-55.2063 109.051L-55.3214 108.772L-55.4528 108.509L-55.3871 108.18L-55.5679 107.934L-55.4857 107.605L-55.535 107.309L-55.913 107.095L-55.6665 106.734L-55.7486 106.455L-56.0609 106.224L-56.1266 105.929L-55.9787 105.6L-56.1923 105.337L-56.2745 105.058L-56.2088 104.745L-56.4224 104.483L-56.3074 104.154L-56.4553 103.891L-56.3567 103.562L-56.4224 103.283L-56.5374 103.004V102.691L-56.6525 102.412L-56.5867 102.116L-56.6853 101.82L-56.6525 101.525L-56.9976 101.278L-56.8332 100.949L-57.0304 100.686L-57.1126 100.391L-56.9647 100.078L-57.1126 99.7991L-56.9483 99.4704L-57.1783 99.2075L-57.2441 98.9117L-57.2934 98.6323L-57.2769 98.3365L-57.2276 98.0243L-57.4084 97.7449L-57.4741 97.4655L-57.3427 97.1533L-57.4248 96.8575L-57.5234 96.5782L-57.4084 96.2659L-57.392 95.9701L-57.4577 95.6743L-57.7042 95.395V95.0992L-57.5563 94.7869L-57.6713 94.5076L-57.7699 94.2118L-57.622 93.916L-57.7371 93.6202L-57.6713 93.3244L-57.6878 93.0286L-57.622 92.7328L-57.7042 92.437L-57.8028 92.1412L-57.7371 91.8454L-57.9507 91.5496L-57.6878 91.2538L-57.6713 90.958L-57.7206 90.6622L-57.9014 90.3664L-57.9343 90.0706L-58 89.7748L-57.7371 89.479L-57.7042 89.1832L-57.9014 88.8874L-57.9178 88.5916L-58 88.2958L-57.9671 88L-57.7864 87.7042L-57.9507 87.4084L-57.7206 87.1126L-57.7535 86.8168L-57.7864 86.521L-57.8521 86.2252L-57.6713 85.9294L-57.9014 85.6336L-57.7042 85.3378L-57.6549 85.042L-57.7042 84.7462L-57.9178 84.4504L-57.8028 84.1546L-57.7864 83.8588V83.563L-57.8028 83.2672L-57.6713 82.9879L-57.6878 82.6756L-57.6713 82.3798L-57.5563 82.1005L-57.7864 81.7882L-57.622 81.5089L-57.6056 81.2131L-57.6549 80.9008L-57.4413 80.6215L-57.6549 80.3092L-57.3427 80.0463L-57.5399 79.7341L-57.5563 79.4219L-57.4577 79.1425L-57.3098 78.8631L-57.4741 78.5509V78.2551L-57.2934 77.9757L-57.2441 77.6799L-57.2112 77.3841L-57.0469 77.1048L-57.0633 76.809L-57.2441 76.4803L-56.9647 76.2174L-56.9811 75.9216L-57.0962 75.6093L-56.8497 75.3464L-57.014 75.0177L-56.6853 74.7712L-56.6525 74.4754L-56.8661 74.1468L-56.8004 73.851L-56.7839 73.5552L-56.7346 73.2758L-56.6689 72.98L-56.6525 72.6842L-56.5703 72.3884L-56.3238 72.1419L-56.4881 71.8133L-56.1923 71.5668L-56.0937 71.2874L-56.3567 70.9259L-56.2745 70.6465L-56.0937 70.3836L-55.9294 70.1042L-55.913 69.8084L-55.9294 69.5126L-55.6829 69.2497L-55.6993 68.9539L-55.5514 68.6909L-55.6993 68.3458L-55.4528 68.0993L-55.3707 67.82L-55.3378 67.5242L-55.3707 67.212L-55.2556 66.9326L-55.2885 66.6204L-55.0584 66.3739L-54.9434 66.0945L-55.1242 65.7494L-54.8448 65.5193L-54.7134 65.24L-54.7955 64.9113L-54.6641 64.6484L-54.549 64.369L-54.4176 64.0896L-54.4011 63.7938L-54.3683 63.498L-54.1875 63.2515L-54.1711 62.9393L-54.1546 62.6271L-54.056 62.3642L-54.1053 62.0355L-53.7931 61.8218L-53.8095 61.5096L-53.5302 61.2796L-53.5795 60.9673L-53.4151 60.7044L-53.333 60.4086L-53.3987 60.0799L-53.2179 59.8334L-53.0043 59.5869L-53.1358 59.2418L-52.8071 59.0446L-52.84 58.716L-52.8564 58.3873L-52.6921 58.1408L-52.5113 57.8943L-52.5277 57.5656L-52.4949 57.2698L-52.1826 57.0562L-52.0676 56.7933L-51.9033 56.5468L-52.0512 56.1688L-51.7061 55.9881L-51.5746 55.7251L-51.5582 55.4129L-51.4596 55.1335L-51.3117 54.8706L-51.1145 54.6241L-51.2788 54.2461L-50.8844 54.0818L-51.0652 53.6874L-50.868 53.4573L-50.7365 53.1944L-50.4736 52.9808L-50.4078 52.685L-50.3092 52.4056L-50.2435 52.1098L-49.997 51.8962V51.5675L-49.7669 51.3539L-49.7505 51.0416L-49.7176 50.7294L-49.3725 50.5651L-49.4383 50.2036L-49.3397 49.9242L-49.1425 49.6777L-49.0768 49.3983L-48.8631 49.1683L-48.6824 48.9218L-48.4852 48.6917L-48.5509 48.3302L-48.2222 48.1658L-48.0579 47.9193V47.5907L-48.0086 47.2784L-47.6964 47.1141V46.769L-47.3348 46.6375L-47.2691 46.3253L-47.2198 46.0295L-47.039 45.783L-46.809 45.5694L-46.8747 45.1914L-46.6282 44.9942L-46.6118 44.6655L-46.3653 44.4683L-46.2338 44.2054L-46.053 43.9589L-45.8723 43.7289L-45.7408 43.4659L-45.6258 43.1866L-45.3628 43.0058L-45.3957 42.6443L-45.2642 42.3649L-45.0177 42.1677L-44.7877 41.9705L-44.6726 41.6911L-44.4261 41.4939L-44.3768 41.1817L-44.1961 40.9516L-44.0482 40.6887L-43.8838 40.4422L-43.8181 40.13L-43.5223 39.9656L-43.3251 39.7356L-43.1444 39.5219L-43.1115 39.1933L-42.9636 38.9303L-42.6349 38.7989V38.4209L-42.2734 38.3223L-42.2077 38.0101L-42.1584 37.6814L-41.9283 37.4842L-41.6161 37.3363L-41.4353 37.1063V36.7447L-41.271 36.4982L-40.9752 36.3503V35.9724L-40.5808 35.9066L-40.3836 35.6766L-40.2357 35.4136L-40.1371 35.1343L-39.9563 34.8878L-39.7427 34.6906L-39.4797 34.5262V34.1483L-39.1511 34.0332L-39.1182 33.6717L-39.0196 33.3759L-38.7731 33.1951L-38.6252 32.9322L-38.4444 32.7021L-38.1651 32.5378L-38.0993 32.2256L-37.6392 32.2092L-37.6063 31.8641L-37.2941 31.7326L-37.0969 31.5025L-36.9326 31.2725L-36.8833 30.9109L-36.7025 30.6973L-36.4889 30.4837L-36.226 30.3193L-35.9466 30.1714L-35.7987 29.9085L-35.7001 29.5963L-35.5193 29.3662L-35.2071 29.2512L-34.9935 29.0375L-34.9113 28.7089L-34.6648 28.5281L-34.5169 28.2816L-34.369 28.0187L-34.1225 27.8215L-33.876 27.6571L-33.5966 27.5092L-33.4652 27.2299L-33.1529 27.1313V26.704L-32.7914 26.6547L-32.7257 26.2932L-32.3477 26.2768L-32.1505 26.0467L-32.0355 25.7509L-31.8711 25.488L-31.4768 25.4551L-31.3288 25.1922L-31.181 24.9128L-31.0166 24.6663L-30.7373 24.5184L-30.5565 24.2883L-30.3429 24.0911L-30.1457 23.8611L-29.817 23.7953L-29.6198 23.5488L-29.4062 23.3516L-29.2418 23.0887L-29.0282 22.8915L-28.8803 22.6286L-28.5188 22.5793L-28.4366 22.2342L-28.1737 22.0863L-27.9765 21.8562L-27.6149 21.8233L-27.3684 21.659L-27.1712 21.4289L-27.0069 21.166L-26.8426 20.9031L-26.6289 20.7059L-26.3989 20.5251L-26.1688 20.3115L-25.8237 20.2786L-25.5608 20.1307L-25.4786 19.7692L-25.2157 19.6377L-24.9528 19.4734L-24.7063 19.3091L-24.4598 19.1612L-24.3119 18.8489L-24.1311 18.6024L-23.9175 18.4217L-23.4738 18.5038L-23.293 18.2573L-23.0794 18.0437L-22.8822 17.7972L-22.6192 17.6822L-22.3234 17.5836L-22.2413 17.1727L-21.8633 17.2056L-21.6825 16.9591L-21.3539 16.9098L-21.1402 16.6797L-21.0088 16.3675L-20.6965 16.3018L-20.5486 15.9895H-20.1871L-20.0885 15.6116L-19.6612 15.7102L-19.4969 15.4308L-19.3162 15.1679L-19.0204 15.0857L-18.7574 14.9378L-18.626 14.6092L-18.2809 14.5763H-17.9358L-17.7879 14.2641L-17.5907 14.0176L-17.3113 13.919L-17.0812 13.7218L-16.8676 13.5081H-16.5225L-16.2431 13.3931L-16.0788 13.0973L-15.8652 12.8672L-15.6022 12.7358H-15.2571L-15.0106 12.5879L-14.7477 12.44L-14.5834 12.1277L-14.2383 12.1606L-13.926 12.1113L-13.8439 11.6512L-13.4495 11.7333L-13.318 11.3718L-13.0387 11.2732L-12.7922 11.1089L-12.5457 10.9281L-12.2006 10.961L-11.9541 10.7966L-11.7076 10.6159L-11.4939 10.4022L-11.0995 10.4844L-10.9516 10.1393L-10.6558 10.09L-10.36 10.0078L-10.0478 9.95854L-9.78487 9.84351L-9.6534 9.43268L-9.39048 9.31765L-9.09468 9.23548L-8.74958 9.25191L-8.60168 8.90682L-8.32232 8.79178L-7.94435 8.90682L-7.79645 8.51242L-7.50066 8.44669H-7.18842L-6.92549 8.28235L-6.62969 8.23305L-6.44893 7.92082L-6.08739 8.00299L-5.90663 7.65789L-5.61083 7.62502L-5.38076 7.37853L-5.01923 7.47712L-4.82203 7.19776L-4.4605 7.29636L-4.29617 6.91839L-3.90177 7.09916L-3.65527 6.93483L-3.40877 6.7705L-3.14584 6.6226L-2.80075 6.65546L-2.61998 6.3268L-2.25845 6.44183L-1.99552 6.29393L-1.74902 6.1296L-1.51895 5.89953L-1.15742 5.99813L-0.910923 5.85023L-0.697289 5.5873L-0.401493 5.50514L-0.138561 5.37367L0.124374 5.20934L0.469467 5.30794L0.683105 5.02857L1.04463 5.17647L1.2254 4.78207L1.55407 4.84781L1.80056 4.65061L2.09636 4.60131L2.44146 4.68347L2.70439 4.58487L2.91803 4.23978L3.24669 4.30551L3.52605 4.22334L3.82185 4.15761L4.10122 4.05901L4.39702 4.02614L4.69281 3.99328L4.93931 3.77965L5.26797 3.86181L5.53091 3.73035L5.81027 3.61531L6.08964 3.50028L6.3197 3.20448L6.61551 3.17162L6.87843 3.05658L7.19067 3.04015L7.53576 3.17162L7.83157 3.13875L8.0945 3.04015L8.35743 2.87582L8.60392 2.64575L8.94902 2.76078L9.24483 2.74435L9.50775 2.58002L9.75425 2.33352L10.0665 2.34995L10.3787 2.38282H10.6745L10.9703 2.34995L11.2332 2.15275L11.529 2.10345L11.792 1.98842L12.0878 1.92269L12.3671 1.79122L12.6629 1.80766L12.9752 1.82409L13.2381 1.61046L13.5175 1.56116L13.8461 1.67619L14.1419 1.65976H14.4377L14.7335 1.61046L14.98 1.33109L15.3087 1.49542L15.5716 1.24893L15.9003 1.41326L16.1796 1.28179L16.4754 1.29823L16.7712 1.26536L17.0506 1.08459L17.3464 1.11746L17.6093 0.854528L17.938 1.10103L18.2174 0.985994L18.4967 0.870962L18.809 0.887395L19.0883 0.788796L19.3677 0.640896L19.6964 0.920261L19.9757 0.723063L20.2715 0.755929L20.5509 0.55873L20.8631 0.640896L21.1425 0.525864L21.4547 0.65733L21.7341 0.443698L22.0299 0.394398L22.3257 0.476564L22.6215 0.377965L22.9008 0.279365L23.2131 0.394398L23.4924 0.279365H23.7882L24.1005 0.427264L24.3963 0.476564H24.6921L24.9879 0.410831H25.2837L25.5795 0.279365L25.8588 0.246499L26.1711 0.345098L26.4504 0.065733L26.7462 0.115033L27.042 0.197199L27.3378 0.115033L27.6336 0.180766L27.9294 0.065733L28.2252 0H28.521L28.8168 0.0821662L29.1126 0.065733L29.4084 0.246499L29.7042 0.0164332L30 0.0492997L30.2958 0.164332L30.5916 0.295798L30.8874 0.147899L31.1832 0.0164332L31.479 0.164332L31.7748 0.0985994L32.0706 0.0492997L32.3664 0.065733L32.6622 0.345098L32.958 0.328665L33.2538 0.377965L33.5496 0.197199L33.8454 0.312232H34.1412L34.4534 0.0985994L34.7328 0.345098L35.0286 0.164332L35.3244 0.410831L35.6202 0.246499L35.916 0.377965H36.2118L36.4911 0.542297L36.7869 0.525864L37.0992 0.361531L37.395 0.279365L37.6743 0.50943L37.9701 0.65733L38.2824 0.410831H38.5782L38.8575 0.624463L39.1533 0.575163L39.4327 0.739496L39.7449 0.65733L40.0243 0.854528L40.3365 0.723063L40.6323 0.640896L40.9117 0.903828L41.191 0.985994L41.5033 0.870962L41.7662 1.08459L42.1113 0.838095L42.3907 0.920261L42.7029 0.887395L42.9658 1.06816H43.2616L43.5574 1.15033L43.8204 1.34753L44.1326 1.31466L44.4613 1.16676L44.7078 1.39683L44.9871 1.54472L45.3322 1.31466L45.6116 1.46256H45.9074L46.1703 1.62689L46.4332 1.82409L46.729 1.88982L47.0413 1.80766L47.3699 1.69262L47.6493 1.80766L47.9451 1.84052L48.1752 2.18562L48.5203 1.98842H48.8161L49.0626 2.25135H49.3584L49.6213 2.44855L49.9007 2.54715L50.2622 2.33352L50.5415 2.39925L50.8045 2.58002L51.0838 2.69505L51.3961 2.66219L51.6919 2.72792L51.9384 2.90868L52.2506 2.89225L52.5464 2.95798L52.7929 3.18805L53.0558 3.31951L53.3681 3.28665L53.6967 3.25378L53.9597 3.38525L54.2555 3.43455L54.4855 3.68105L54.8306 3.59888L55.1264 3.61531L55.3401 3.96041L55.6194 4.02614L55.9481 3.99328L56.211 4.10831L56.4904 4.20691L56.8191 4.15761L57.0327 4.48627L57.312 4.55201L57.575 4.71634L57.8708 4.76564L58.1666 4.81494L58.4952 4.74921L58.6924 5.0943L59.0375 4.99571L59.3005 5.1436L59.5634 5.27507L59.8099 5.4887L60.1057 5.538L60.3686 5.65304L60.7302 5.55444L60.9438 5.7845L61.2067 5.9324L61.4697 6.06387L61.749 6.16247L62.127 6.031L62.3899 6.14603L62.5543 6.54043L62.8336 6.63903L63.1952 6.524L63.4909 6.58973L63.6881 6.90196L64.0168 6.88553L64.1976 7.21419L64.592 7.04986L64.8385 7.19776L65.0685 7.44426L65.3315 7.55929L65.578 7.72362L65.8902 7.75649L66.1038 8.01942H66.4161L66.679 8.16732L66.9419 8.29879L67.2542 8.33165L67.55 8.39739L67.7472 8.67675L67.9608 8.92325L68.3059 8.85752L68.5688 9.02185L68.8646 9.08758L69.029 9.41625L69.4233 9.30121L69.6205 9.56415L69.8342 9.79421L70.1629 9.77778L70.4422 9.89281L70.6887 10.0736L70.9023 10.3036L71.2639 10.2215L71.4118 10.583L71.6583 10.7473L71.9212 10.8952L72.2992 10.8131L72.4471 11.1746L72.71 11.2896L72.9565 11.4704L73.2687 11.5033L73.5317 11.6347L73.7782 11.7991L74.0904 11.8648L74.3369 12.0127L74.5834 12.1935L74.8135 12.3907L75.0271 12.6043L75.2407 12.8179L75.5858 12.8015L75.7502 13.1137L75.9966 13.2781L76.3746 13.2123L76.6375 13.3602L76.884 13.5246L77.1141 13.7218L77.262 14.0504L77.6235 14.034L77.7879 14.3134L77.9851 14.5434L78.2316 14.7242L78.5767 14.7406L78.8725 14.8063L79.0368 15.1021L79.2997 15.2336L79.5134 15.4472L79.6941 15.6937L79.9406 15.8745L80.2528 15.9402L80.5651 16.0224L80.7458 16.2525L80.943 16.499L81.1731 16.6797L81.5511 16.6633L81.6661 17.0084L81.8469 17.2549L82.2741 17.1892L82.3563 17.5836L82.5535 17.7808L82.7836 17.978L83.2273 17.8794L83.3752 18.1587L83.5559 18.4217L83.7696 18.6353L84.0161 18.7832L84.3119 18.9147L84.5255 19.0954L84.6734 19.3912H85.0678L85.2486 19.6213L85.4786 19.8021L85.7251 19.9664L85.9388 20.18L86.1195 20.4265L86.4482 20.4923L86.629 20.7387L86.8261 20.9688L86.9576 21.2482L87.237 21.3961L87.5163 21.5275L87.8121 21.6426L87.9765 21.8891L88.2394 22.037L88.4859 22.2013L88.5352 22.5957L88.8967 22.6286L88.9953 22.9737L89.2583 23.1216L89.3733 23.4338L89.7348 23.4667L89.8663 23.7789L90.1785 23.8611L90.4086 24.0583L90.6715 24.2062L90.8359 24.4691L91.0824 24.6334L91.0659 25.0607L91.4767 25.0771L91.5261 25.4551L91.7561 25.6359L91.904 25.8988L92.1505 26.0796L92.4956 26.1453L92.6107 26.4575L92.8571 26.6219L93.1694 26.7369L93.1529 27.1641L93.4323 27.2956L93.5802 27.5585L93.9746 27.6078L94.1554 27.8379L94.2375 28.1501L94.484 28.3309L94.6484 28.5774L94.9606 28.7089L94.977 29.0868L95.2235 29.2676L95.47 29.4484L95.8151 29.5305L95.8644 29.8756L96.1109 30.0564L96.2753 30.3029L96.3246 30.648L96.5546 30.8288L96.7847 31.026L97.1134 31.141L97.2941 31.3711L97.3927 31.6833L97.6721 31.8312L97.6885 32.2092L98.0993 32.242L98.1815 32.5707L98.3294 32.8336L98.5595 33.0144L98.8553 33.1623L99.036 33.3923L98.9703 33.8196L99.3483 33.9018L99.3811 34.2469L99.529 34.5098L99.7427 34.707L99.8906 34.9699L100.055 35.2164L100.4 35.3315L100.515 35.6108L100.581 35.9395L100.745 36.1696L101.123 36.2682L101.304 36.4982L101.287 36.8762L101.6 37.0241L101.813 37.2213L101.797 37.5993L102.175 37.6979V38.0594L102.306 38.3223L102.635 38.4538L102.783 38.7167L102.914 38.9796L103.046 39.2426L103.194 39.5055L103.473 39.6698L103.555 39.9656L103.851 40.13L103.835 40.4915L104.114 40.6723L104.262 40.9352L104.393 41.1817L104.64 41.3789L104.771 41.6583L104.919 41.9048L104.886 42.2827L105.166 42.4635L105.264 42.7429L105.56 42.9072L105.708 43.1701L105.691 43.5152L105.79 43.7946L106.201 43.9096V44.2547L106.497 44.419L106.645 44.6655L106.595 45.0435L106.71 45.3064L107.072 45.4543L107.203 45.7173V46.0624L107.417 46.276L107.614 46.5061L107.598 46.8512L107.91 47.0155L107.894 47.3606L108.124 47.5742L108.058 47.9358L108.37 48.1165L108.419 48.4123L108.633 48.6424L108.83 48.8725L108.995 49.119L109.077 49.4148L109.159 49.6941L109.307 49.9571V50.2857L109.537 50.4993V50.828L109.685 51.0909L109.915 51.3046L110.079 51.5511L110.161 51.8469L110.096 52.192L110.276 52.4385L110.309 52.7507L110.638 52.9315L110.737 53.2108L110.786 53.5066L110.95 53.7531L110.917 54.0818L111.049 54.3612L111.312 54.5748L111.361 54.8542L111.509 55.1171L111.706 55.3636L111.607 55.7251L111.985 55.8895L111.887 56.251L112.1 56.4811L112.298 56.7275L112.216 57.0726L112.248 57.3684L112.593 57.5656L112.725 57.8286L112.544 58.2065L112.709 58.453L112.84 58.716L112.807 59.0446L112.971 59.3076L113.086 59.5705L113.218 59.8499L113.497 60.0635L113.399 60.4086L113.448 60.7044L113.563 60.9673L113.859 61.1974L113.76 61.5261L113.793 61.8218L113.826 62.1341L114.171 62.3313L114.27 62.6106L114.22 62.9393L114.401 63.1858L114.549 63.4652L114.319 63.8267L114.664 64.0403L114.779 64.3197L114.565 64.6812L114.681 64.9606L114.845 65.2071L115.091 65.4536L114.878 65.8151L115.141 66.0616L115.026 66.3903L115.124 66.6697L115.387 66.8997L115.469 67.1955L115.584 67.4585L115.617 67.7707L115.551 68.0829L115.732 68.3458L115.65 68.6581L115.765 68.9374L115.699 69.2661L115.782 69.5455L115.831 69.8413L115.995 70.1042L116.11 70.3836L116.275 70.6465L116.34 70.9423L116.11 71.2874L116.324 71.5339L116.357 71.8297L116.307 72.1419L116.357 72.4377L116.439 72.7171L116.554 72.9965L116.718 73.2758L116.669 73.5881V73.8839L116.915 74.1468L116.817 74.459V74.7548L116.833 75.0506L117.113 75.3135L116.932 75.6258L117.08 75.9051L116.899 76.2338L117.178 76.4967L117.145 76.7925L117.211 77.0883L117.162 77.3841L117.195 77.6799L117.277 77.9757L117.474 78.2551L117.261 78.5673L117.31 78.8631L117.326 79.1589L117.54 79.4383L117.622 79.7177L117.359 80.0463L117.474 80.3257L117.638 80.605L117.523 80.9173L117.474 81.2131L117.589 81.5089L117.721 81.7882L117.671 82.084L117.852 82.3798L117.786 82.6756L117.721 82.9714L117.836 83.2672L117.573 83.5795L117.655 83.8588L117.753 84.1546L117.655 84.4504L117.869 84.7462L117.819 85.042L117.869 85.3378L117.901 85.6336L117.918 85.9294L117.836 86.2252L117.934 86.521L117.721 86.8168L117.819 87.1126L117.901 87.4084L117.934 87.7042L117.819 88Z" fill="#FFCC33"/>
</svg>
