<svg width="108" height="141" viewBox="0 0 108 141" fill="none" xmlns="http://www.w3.org/2000/svg">
<path d="M140.855 70.5L140.947 70.737L141 70.974L140.974 71.2109L140.829 71.4479L140.987 71.6849L140.908 71.9219L140.789 72.1588L140.934 72.3958L140.868 72.6328L140.882 72.8698L140.829 73.1067V73.3437L140.684 73.5675L140.737 73.8176L140.697 74.0415L140.789 74.2916L140.71 74.5154L140.645 74.7524L140.724 75.0025L140.684 75.2263L140.842 75.4765L140.592 75.7003L140.658 75.9373L140.605 76.1742L140.526 76.398L140.618 76.6482L140.684 76.8983L140.526 77.1221L140.605 77.3591L140.645 77.6092L140.552 77.8331L140.46 78.0569L140.394 78.2938L140.381 78.5308L140.342 78.7678L140.408 79.0048L140.25 79.2286L140.394 79.4919L140.329 79.7157L140.236 79.9395L140.263 80.1896L140.315 80.4266L140.052 80.6373L140.065 80.8742L139.96 81.098L139.973 81.335L140.092 81.5983L140.039 81.8353V82.0723L140.013 82.3092L139.894 82.5199L139.907 82.77L139.855 83.007L139.868 83.244L139.657 83.4415L139.539 83.6653L139.697 83.9417L139.644 84.1656L139.46 84.3762L139.394 84.6L139.407 84.837L139.473 85.1003L139.196 85.2846L139.236 85.5347L139.249 85.7717L139.275 86.0219L139.21 86.2588L139.183 86.4958L138.933 86.6801L138.854 86.9039L138.894 87.1541L138.88 87.391L138.854 87.628L138.683 87.8387L138.578 88.0493L138.551 88.2863L138.525 88.5233L138.459 88.7602L138.525 89.0235L138.485 89.2605L138.314 89.458V89.695L138.248 89.9319L138.117 90.1294L137.972 90.3401L137.906 90.5639L137.788 90.7745L137.88 91.051V91.3011L137.59 91.4591L137.577 91.6961V91.9462L137.59 92.2095L137.445 92.407L137.327 92.6177L137.261 92.8415L137.169 93.0653L136.998 93.2628L137.09 93.5392L136.919 93.7367L136.998 94L136.8 94.1843L136.827 94.4476L136.59 94.6188L136.616 94.8821L136.471 95.0796L136.353 95.2902L136.392 95.5535L136.168 95.7247L136.129 95.9616L135.971 96.1591L135.866 96.3698L135.945 96.6594L135.668 96.791L135.694 97.0675L135.563 97.265L135.392 97.4493L135.51 97.7521L135.273 97.9101L135.168 98.1207L135.115 98.3577L135.049 98.5815L134.891 98.779L134.747 98.9765L134.799 99.253L134.641 99.4504L134.615 99.6874L134.483 99.8849V100.148L134.167 100.267L134.207 100.556L134.128 100.78L134.062 101.004L133.93 101.201L133.693 101.346L133.746 101.636L133.667 101.86L133.562 102.083L133.456 102.294L133.14 102.399L133.154 102.676L132.943 102.834L132.956 103.097L132.838 103.308L132.614 103.453V103.729L132.508 103.94L132.258 104.071L132.285 104.348L132.166 104.559L132.048 104.769L131.863 104.927L131.797 105.164L131.718 105.388L131.442 105.506L131.403 105.757V106.033L131.205 106.191L131.073 106.389L130.929 106.573L130.757 106.757L130.744 107.02L130.678 107.257L130.52 107.442L130.323 107.6L130.297 107.863L130.099 108.008L129.836 108.126L129.889 108.442L129.77 108.653L129.625 108.837L129.388 108.969L129.204 109.127V109.417L128.967 109.535L128.862 109.746L128.848 110.035L128.598 110.141L128.611 110.443L128.388 110.575L128.23 110.746L128.203 111.023L127.861 111.075L127.729 111.273L127.637 111.497L127.506 111.694L127.427 111.931L127.19 112.05L127.216 112.352L127.045 112.524L126.755 112.603L126.768 112.905L126.479 112.997L126.4 113.221L126.255 113.419L126.084 113.577L126.071 113.866L125.781 113.945L125.676 114.156L125.465 114.288L125.333 114.485L125.32 114.788L125.004 114.841L124.938 115.078L124.728 115.222V115.525L124.517 115.657L124.28 115.775L124.267 116.078L123.99 116.144L123.859 116.341L123.701 116.513L123.556 116.697L123.49 116.96L123.214 117.039L123.174 117.316L122.911 117.395L122.753 117.579L122.661 117.816L122.529 118.013L122.279 118.106L122.147 118.303L121.91 118.408L121.792 118.619L121.647 118.803L121.463 118.961L121.318 119.146L121.213 119.369L120.91 119.422L120.752 119.593V119.922L120.541 120.041L120.265 120.107L120.159 120.344L120.067 120.581L119.817 120.66L119.606 120.778L119.422 120.936L119.409 121.265L119.251 121.436L119.054 121.581L118.83 121.687L118.659 121.845L118.566 122.095L118.277 122.121L118.198 122.397H117.882L117.737 122.595L117.684 122.885L117.421 122.937L117.342 123.214L117.105 123.306L116.987 123.53L116.763 123.635L116.565 123.754L116.355 123.885L116.131 123.977L115.96 124.148L115.868 124.412L115.644 124.504L115.486 124.688L115.341 124.886L115.078 124.938L114.92 125.123L114.801 125.36L114.564 125.439L114.301 125.491L114.248 125.807L113.906 125.741L113.853 126.071L113.537 126.044L113.432 126.294L113.248 126.439L113.076 126.61L112.879 126.742L112.721 126.94L112.55 127.097L112.313 127.163L112.089 127.255L111.957 127.479L111.734 127.571L111.457 127.611L111.365 127.887H111.075L110.904 128.059L110.759 128.256L110.575 128.414L110.417 128.585L110.088 128.533L109.983 128.809L109.838 129.006L109.535 128.98L109.338 129.125L109.18 129.283L108.982 129.415L108.771 129.546L108.574 129.665L108.35 129.757L108.166 129.915L107.916 129.968L107.824 130.257L107.613 130.376L107.336 130.362L107.178 130.547L106.928 130.599L106.849 130.942L106.56 130.902L106.362 131.034L106.191 131.205L106.02 131.389L105.704 131.337L105.612 131.626L105.296 131.574L105.138 131.758L104.94 131.903L104.717 131.969L104.519 132.113L104.269 132.14L104.071 132.271L103.913 132.469L103.703 132.587L103.492 132.693L103.321 132.877L103.018 132.798L102.821 132.93L102.65 133.14L102.413 133.18L102.281 133.456L101.978 133.39L101.82 133.575L101.596 133.68H101.333L101.201 133.943H100.938L100.701 133.983L100.504 134.115L100.346 134.352L100.082 134.338L99.9112 134.549L99.7006 134.654L99.4504 134.668L99.2398 134.773H98.9765L98.8185 134.983L98.5947 135.076L98.3182 135.023L98.1602 135.273L97.9233 135.326L97.7126 135.418L97.5151 135.55L97.265 135.563L97.0149 135.589L96.87 135.879L96.6331 135.931L96.4487 136.076L96.1591 135.997L95.9485 136.116L95.6983 136.129L95.514 136.287L95.2902 136.366L95.1059 136.563L94.8821 136.629L94.6714 136.748L94.4476 136.84H94.1975L93.9868 136.958L93.7104 136.853L93.4997 136.998L93.2759 137.077L93.0521 137.156L92.8678 137.327L92.5913 137.274L92.3938 137.419L92.1832 137.511L91.9331 137.538L91.7092 137.603L91.4854 137.656L91.2485 137.722L91.0642 137.906H90.814L90.5507 137.88L90.3664 138.09L90.1031 138.012L89.8924 138.13L89.6555 138.143L89.458 138.327L89.2078 138.301L89.0235 138.551L88.7997 138.604L88.5364 138.551L88.2994 138.564L88.0756 138.657L87.8518 138.749L87.6148 138.762L87.4174 138.933L87.1804 138.986L86.9303 138.946L86.6669 138.894L86.4563 138.999L86.2325 139.065L86.0219 139.236L85.7586 139.17L85.5479 139.275L85.3373 139.42L85.0871 139.381L84.8501 139.394L84.5868 139.341L84.363 139.407L84.1787 139.697L83.9154 139.565H83.6784L83.4415 139.631L83.2045 139.604L83.007 139.868L82.77 139.894L82.5331 139.907L82.2698 139.776L82.0459 139.868L81.8221 139.934L81.572 139.92L81.3482 139.986L81.1375 140.171L80.8874 140.131L80.6373 140.039L80.4135 140.131L80.2028 140.342L79.9527 140.236L79.7025 140.21L79.4656 140.236L79.2417 140.302L79.0179 140.408L78.7678 140.302L78.5308 140.315L78.2938 140.329L78.0832 140.579L77.8331 140.513L77.5829 140.394L77.3591 140.5L77.1353 140.684L76.8983 140.737L76.6482 140.592L76.4244 140.724L76.1874 140.737H75.9504L75.7134 140.684L75.4896 140.842L75.2395 140.684L75.0025 140.816L74.7655 140.724L74.5286 140.737L74.2916 140.71L74.0546 140.868L73.8308 140.908L73.5807 140.829H73.3437L73.1067 140.921L72.8829 140.974L72.6328 140.789H72.3958L72.1588 140.829L71.9219 140.895L71.6849 140.737L71.4479 140.842L71.2109 140.816L70.974 141L70.737 140.776H70.5L70.263 140.803L70.0261 140.816L69.7891 140.961L69.5521 140.776L69.3151 140.908L69.0782 140.974L68.8412 141L68.6042 140.947L68.3672 140.868L68.1303 140.882L67.9064 140.697L67.6695 140.71L67.4193 140.895L67.1955 140.75L66.9585 140.763L66.7216 140.803H66.4714L66.2345 140.882L66.0106 140.71L65.7605 140.842L65.5367 140.671L65.2866 140.816L65.0628 140.592L64.8258 140.631L64.5888 140.618L64.365 140.526L64.1149 140.631L63.8779 140.658L63.6409 140.539L63.3908 140.671L63.167 140.579L62.9431 140.394L62.7062 140.487L62.4692 140.394L62.2322 140.421L61.9952 140.447L61.7714 140.25L61.5213 140.381L61.2843 140.394L61.0737 140.171L60.8235 140.184L60.5997 140.157L60.3759 140.026H60.1389L59.902 139.999L59.665 139.973L59.428 139.96L59.191 139.947L58.9541 139.92L58.7171 139.907L58.5064 139.736L58.2563 139.762L58.0325 139.67L57.7692 139.841L57.5322 139.815L57.3216 139.657L57.0846 139.631L56.874 139.486L56.5975 139.604L56.4132 139.354L56.1894 139.289L55.9261 139.341L55.6759 139.407L55.4653 139.249L55.2283 139.223L55.0177 139.091L54.7675 139.117L54.5042 139.183L54.3331 138.867L54.0566 139.052L53.8723 138.815L53.6353 138.775L53.372 138.854L53.1614 138.709L52.9375 138.63L52.6742 138.709L52.5031 138.42L52.2134 138.591L51.9896 138.512L51.7922 138.341L51.5157 138.42L51.3445 138.169H51.0944L50.8838 138.051L50.6205 138.104L50.4098 137.998L50.186 137.919L49.9359 137.906L49.712 137.827L49.4882 137.788L49.2776 137.63L49.067 137.551L48.8168 137.511L48.6193 137.38L48.356 137.419L48.1322 137.314L47.9347 137.169L47.7109 137.103L47.474 137.064L47.2238 137.05L47.079 136.748L46.842 136.721L46.6182 136.629L46.4207 136.511L46.1838 136.458L45.9468 136.405L45.723 136.353L45.486 136.287L45.2622 136.234L45.0779 136.037L44.8409 135.971L44.5644 136.05L44.3669 135.905L44.13 135.866L43.9193 135.76L43.7219 135.615L43.5375 135.431L43.3006 135.378L43.0504 135.365L42.8134 135.326L42.5896 135.234L42.3658 135.141L42.1815 134.997L42.0104 134.799L41.7997 134.694L41.5233 134.72L41.2863 134.668L41.102 134.496L40.8518 134.483L40.6807 134.273L40.5227 134.062L40.2462 134.088L40.0487 133.97L39.8776 133.759L39.5748 133.838L39.351 133.759L39.1535 133.641L39.035 133.351L38.7585 133.364L38.5874 133.167L38.3504 133.127L38.1529 132.982L37.916 132.93L37.7448 132.759L37.4552 132.798L37.3104 132.548L37.1392 132.364L36.8496 132.416L36.7443 132.127L36.4678 132.113L36.2703 131.995L35.9938 132.008L35.8227 131.824L35.5857 131.771L35.4541 131.521L35.1908 131.495L35.0459 131.258L34.8748 131.1L34.5588 131.166L34.493 130.823L34.2297 130.784L33.9927 130.718L33.8611 130.494L33.6241 130.428L33.4661 130.231L33.2555 130.112L32.9658 130.126L32.742 130.033L32.6499 129.744L32.4787 129.573L32.1496 129.652L32.0048 129.441L31.8599 129.217L31.6888 129.059H31.3992L31.2675 128.835L31.0569 128.73L30.8857 128.559L30.5566 128.625L30.4118 128.414L30.3064 128.164L30.0036 128.177L29.9378 127.848L29.5955 127.914L29.556 127.585L29.2664 127.558L29.1611 127.321L28.9109 127.255L28.6608 127.203L28.437 127.084L28.3448 126.821L28.1473 126.703L28.0157 126.479H27.7129L27.5944 126.255L27.3706 126.15L27.2916 125.873L27.0678 125.781L26.8703 125.636L26.6333 125.557L26.4885 125.36L26.2252 125.307L26.1726 124.991L25.8434 125.017L25.6328 124.899L25.4485 124.754L25.3563 124.491L25.2247 124.28H24.9219L24.8955 123.938L24.5664 123.964L24.5401 123.635H24.2241L24.1319 123.385L23.8555 123.345L23.658 123.201L23.579 122.937L23.3289 122.858L23.2762 122.555L23.0261 122.49L22.7891 122.384L22.6838 122.161L22.5389 121.963L22.4336 121.739L22.2098 121.634L21.9597 121.542L21.8543 121.305L21.6964 121.134L21.4726 121.028L21.3277 120.844L21.2092 120.62L20.9064 120.594L20.8538 120.317L20.7485 120.08L20.551 119.936L20.3403 119.817L20.0639 119.764L20.0244 119.475L19.8664 119.29L19.6162 119.198L19.5899 118.896L19.3003 118.843L19.1555 118.659L18.9711 118.514L18.8 118.343L18.721 118.092L18.563 117.921L18.2734 117.855L18.2207 117.592L17.9838 117.487L17.9443 117.21L17.7073 117.092L17.6283 116.855L17.3913 116.75L17.207 116.592L17.1543 116.328L17.0095 116.131L16.9042 115.907L16.5751 115.881L16.4039 115.71L16.2854 115.499L16.2328 115.236L16.088 115.051L15.8905 114.906L15.8115 114.669L15.6798 114.472L15.4824 114.327L15.2585 114.196L15.1664 113.972L15.0216 113.787L14.8504 113.616L14.7319 113.419L14.5476 113.261L14.4423 113.037L14.2053 112.918L14.179 112.642L13.9025 112.563L13.8762 112.273L13.784 112.05L13.6655 111.852L13.4417 111.72L13.3627 111.483L13.2443 111.273L13.1389 111.062L13.0073 110.865L12.7966 110.733L12.744 110.47L12.5202 110.338L12.2832 110.206L12.3227 109.904L12.0067 109.838L11.8882 109.627L11.7303 109.443L11.6908 109.193L11.5196 109.008L11.4275 108.798L11.2431 108.627V108.35L11.151 108.126L10.993 107.942L10.8613 107.758L10.7955 107.508L10.5059 107.415L10.3347 107.244L10.2294 107.034L10.1373 106.81L9.99244 106.612L9.83445 106.441L9.91345 106.112L9.71597 105.954L9.63698 105.717L9.4395 105.572L9.22885 105.414L9.17619 105.177L9.03137 104.98L9.0577 104.703L8.84706 104.545L8.64958 104.374L8.74174 104.058L8.4521 103.953L8.30728 103.755L8.21513 103.545V103.268L8.1493 103.031L7.93866 102.873L7.99132 102.584L7.82017 102.413L7.62269 102.241L7.46471 102.057L7.5042 101.768L7.25406 101.636L7.2409 101.373L7.10924 101.175L6.92493 101.004V100.741L6.71429 100.569L6.75378 100.293L6.67479 100.069L6.51681 99.8849L6.47731 99.6347L6.20084 99.5031L6.22717 99.2398L6.13501 99.016L6.01653 98.8053L6.05602 98.542L5.85854 98.3709L5.81905 98.1207L5.56891 97.9759L5.70056 97.66L5.35826 97.5415L5.51625 97.2255L5.18712 97.107V96.8437L5.12129 96.6199L4.93698 96.4356L4.89748 96.1986L4.93698 95.9221L4.85798 95.7115L4.64734 95.5272L4.48936 95.3429L4.60784 95.0401L4.56835 94.8031L4.42353 94.6056V94.3555L4.33137 94.1317L4.13389 93.9605L3.98908 93.7499L3.84426 93.5524L3.96275 93.2628L3.88375 93.0389L3.7521 92.8415L3.69944 92.6045L3.46247 92.4333L3.63361 92.1305L3.58095 91.8936L3.47563 91.6829L3.17283 91.5249V91.288L3.08067 91.0642L3.13333 90.8008L3.04118 90.577L3.00168 90.3401L3.02801 90.0899L2.85686 89.8924L2.76471 89.6686L2.68571 89.4448L2.60672 89.221L2.56723 88.9972L2.64622 88.7207L2.43557 88.5364L2.51457 88.2731L2.39608 88.0625L2.31709 87.8387L2.09328 87.6412L2.2381 87.3647L2.14594 87.1409L2.04062 86.9303L2.09328 86.6669L1.94846 86.4695L2.01429 86.2062L1.97479 85.9692L1.67199 85.798L1.86947 85.5084L1.80364 85.2846L1.5535 85.1003L1.50084 84.8633L1.61933 84.6L1.44818 84.3894L1.38235 84.1656L1.43501 83.9154L1.26387 83.7048L1.35602 83.4415L1.23754 83.2308L1.31653 82.9675L1.26387 82.7437L1.17171 82.5199V82.2698L1.07955 82.0459L1.13221 81.809L1.05322 81.572L1.07955 81.335L0.803081 81.1375L0.934734 80.8742L0.776751 80.6636L0.710924 80.4266L0.829412 80.1765L0.710924 79.9527L0.842577 79.6894L0.658263 79.4787L0.605602 79.2417L0.566106 79.0179L0.579272 78.781L0.618768 78.5308L0.47395 78.307L0.421289 78.0832L0.526611 77.8331L0.460784 77.5961L0.381793 77.3723L0.47395 77.1221L0.487115 76.8852L0.434454 76.6482L0.236975 76.4244V76.1874L0.355462 75.9373L0.263305 75.7134L0.184314 75.4765L0.302801 75.2395L0.210644 75.0025L0.263305 74.7655L0.25014 74.5286L0.302801 74.2916L0.236975 74.0546L0.157983 73.8176L0.210644 73.5807L0.0394958 73.3437L0.25014 73.1067L0.263305 72.8698L0.22381 72.6328L0.0789916 72.3958L0.0526611 72.1588L0 71.9219L0.210644 71.6849L0.236975 71.4479L0.0789916 71.2109L0.0658263 70.974L0 70.737L0.0263305 70.5L0.171148 70.263L0.0394958 70.0261L0.22381 69.7891L0.197479 69.5521L0.171148 69.3151L0.118487 69.0782L0.263305 68.8412L0.0789916 68.6042L0.236975 68.3672L0.276471 68.1303L0.236975 67.8933L0.0658263 67.6563L0.157983 67.4193L0.171148 67.1824V66.9454L0.157983 66.7084L0.263305 66.4846L0.25014 66.2345L0.263305 65.9975L0.355462 65.7737L0.171148 65.5235L0.302801 65.2997L0.315966 65.0628L0.276471 64.8126L0.447619 64.5888L0.276471 64.3387L0.526611 64.128L0.368627 63.8779L0.355462 63.6277L0.434454 63.4039L0.552941 63.1801L0.421289 62.93V62.693L0.566106 62.4692L0.605602 62.2322L0.631933 61.9952L0.763586 61.7714L0.75042 61.5345L0.605602 61.2712L0.829412 61.0605L0.816247 60.8235L0.72409 60.5734L0.921569 60.3627L0.789916 60.0994L1.05322 59.902L1.07955 59.665L0.908403 59.4017L0.961065 59.1647L0.97423 58.9277L1.01373 58.7039L1.06639 58.4669L1.07955 58.23L1.14538 57.993L1.34286 57.7955L1.2112 57.5322L1.44818 57.3347L1.52717 57.1109L1.31653 56.8213L1.38235 56.5975L1.52717 56.3868L1.65882 56.163L1.67199 55.9261L1.65882 55.6891L1.8563 55.4784L1.84314 55.2415L1.96162 55.0308L1.84314 54.7543L2.04062 54.5569L2.10644 54.3331L2.13277 54.0961L2.10644 53.8459L2.1986 53.6221L2.17227 53.372L2.35658 53.1745L2.44874 52.9507L2.30392 52.6742L2.52773 52.4899L2.63305 52.2661L2.56723 52.0028L2.67255 51.7922L2.76471 51.5684L2.87003 51.3445L2.88319 51.1076L2.90952 50.8706L3.05434 50.6731L3.06751 50.423L3.08067 50.1728L3.15966 49.9622L3.12017 49.6989L3.37031 49.5277L3.35714 49.2776L3.58095 49.0933L3.54146 48.8431L3.67311 48.6325L3.73894 48.3955L3.68627 48.1322L3.83109 47.9347L4.00224 47.7373L3.89692 47.4608L4.16022 47.3028L4.13389 47.0395L4.12073 46.7762L4.25238 46.5787L4.3972 46.3812L4.38403 46.1179L4.41036 45.881L4.6605 45.7098L4.75266 45.4992L4.88431 45.3017L4.76583 44.9989L5.0423 44.8541L5.14762 44.6434L5.16078 44.3933L5.23978 44.1695L5.35826 43.9588L5.51625 43.7613L5.38459 43.4585L5.70056 43.3269L5.55574 43.0109L5.71373 42.8266L5.81905 42.616L6.02969 42.4448L6.08235 42.2078L6.16135 41.984L6.21401 41.7471L6.41149 41.5759V41.3126L6.5958 41.1415L6.60896 40.8913L6.63529 40.6412L6.91177 40.5095L6.8591 40.2199L6.9381 39.9961L7.09608 39.7986L7.14874 39.5748L7.31989 39.3905L7.46471 39.193L7.62269 39.0087L7.57003 38.7191L7.83333 38.5874L7.96499 38.3899V38.1266L8.00448 37.8765L8.25462 37.7448V37.4683L8.54426 37.363L8.59692 37.1129L8.63642 36.8759L8.78123 36.6784L8.96555 36.5073L8.91288 36.2045L9.11036 36.0465L9.12353 35.7832L9.32101 35.6252L9.42633 35.4146L9.57115 35.2171L9.71597 35.0328L9.82129 34.8221L9.91345 34.5983L10.1241 34.4535L10.0978 34.1639L10.2031 33.9401L10.4006 33.7821L10.5849 33.6241L10.677 33.4003L10.8745 33.2423L10.914 32.9922L11.0588 32.8078L11.1773 32.5972L11.309 32.3997L11.3616 32.1496L11.5986 32.0179L11.7566 31.8336L11.9014 31.6625L11.9277 31.3992L12.0462 31.1885L12.3095 31.0832V30.7804L12.5992 30.7014L12.6518 30.4513L12.6913 30.188L12.8756 30.03L13.1258 29.9115L13.2706 29.7272V29.4375L13.4022 29.2401L13.6392 29.1216V28.8188L13.9552 28.7661L14.1132 28.5818L14.2317 28.3711L14.3106 28.1473L14.4555 27.9499L14.6266 27.7919L14.8373 27.6602V27.3574L15.1006 27.2653L15.1269 26.9756L15.2059 26.7387L15.4034 26.5938L15.5218 26.3832L15.6667 26.1989L15.8905 26.0672L15.9431 25.8171L16.3118 25.8039L16.3381 25.5275L16.5882 25.4221L16.7462 25.2378L16.8779 25.0535L16.9174 24.7639L17.0622 24.5927L17.2333 24.4216L17.444 24.2899L17.6678 24.1714L17.7863 23.9608L17.8653 23.7106L18.0101 23.5263L18.2602 23.4342L18.4314 23.263L18.4972 22.9997L18.6947 22.8549L18.8132 22.6574L18.9317 22.4468L19.1291 22.2888L19.3266 22.1571L19.5504 22.0387L19.6557 21.8148L19.9059 21.7359V21.3936L20.1955 21.3541L20.2482 21.0644L20.551 21.0513L20.709 20.8669L20.8011 20.63L20.9328 20.4193L21.2487 20.393L21.3672 20.1824L21.4857 19.9585L21.6174 19.7611L21.8412 19.6426L21.986 19.4583L22.1571 19.3003L22.3151 19.116L22.5784 19.0633L22.7364 18.8658L22.9076 18.7078L23.0392 18.4972L23.2104 18.3392L23.3289 18.1286L23.6185 18.0891L23.6843 17.8126L23.895 17.6941L24.0529 17.5098L24.3426 17.4835L24.5401 17.3518L24.698 17.1675L24.8297 16.9569L24.9613 16.7462L25.1325 16.5882L25.3168 16.4434L25.5011 16.2723L25.7776 16.2459L25.9882 16.1275L26.0541 15.8378L26.2647 15.7325L26.4754 15.6008L26.6728 15.4692L26.8703 15.3507L26.9888 15.1006L27.1336 14.9031L27.3048 14.7583L27.6602 14.8241L27.805 14.6266L27.9762 14.4555L28.1342 14.258L28.3448 14.1658L28.5818 14.0868L28.6476 13.7577L28.9504 13.784L29.0952 13.5866L29.3585 13.5471L29.5297 13.3627L29.635 13.1126L29.8852 13.0599L30.0036 12.8098H30.2933L30.3723 12.507L30.7146 12.586L30.8462 12.3622L30.991 12.1515L31.228 12.0857L31.4387 11.9672L31.544 11.7039L31.8204 11.6776H32.0969L32.2154 11.4275L32.3734 11.23L32.5972 11.151L32.7815 10.993L32.9527 10.8218H33.2291L33.4529 10.7297L33.5846 10.4927L33.7557 10.3084L33.9664 10.2031H34.2429L34.4403 10.0846L34.651 9.96611L34.7826 9.71597L35.0591 9.7423L35.3092 9.7028L35.3751 9.33417L35.691 9.4L35.7964 9.11036L36.0202 9.03137L36.2177 8.89972L36.4151 8.7549L36.6916 8.78123L36.8891 8.64958L37.0866 8.50476L37.2577 8.33361L37.5737 8.39944L37.6922 8.12297L37.9291 8.08347L38.1661 8.01765L38.4162 7.97815L38.6269 7.88599L38.7322 7.55686L38.9429 7.46471L39.1798 7.39888L39.4563 7.41205L39.5748 7.13557L39.7986 7.04342L40.1014 7.13557L40.2199 6.81961L40.4569 6.76695H40.707L40.9176 6.63529L41.1546 6.5958L41.2994 6.34566L41.5891 6.41149L41.7339 6.13501L41.9709 6.10868L42.1552 5.9112L42.4448 5.9902L42.6028 5.76639L42.8924 5.84538L43.0241 5.54258L43.3401 5.6874L43.5375 5.55574L43.735 5.42409L43.9457 5.3056L44.2221 5.33193L44.3669 5.06863L44.6566 5.16078L44.8672 5.0423L45.0647 4.91064L45.249 4.72633L45.5387 4.80532L45.7361 4.68683L45.9073 4.47619L46.1443 4.41036L46.3549 4.30504L46.5656 4.17339L46.842 4.25238L47.0132 4.02857L47.3028 4.14706L47.4476 3.83109L47.7109 3.88375L47.9084 3.72577L48.1454 3.68627L48.4219 3.7521L48.6325 3.67311L48.8036 3.39664L49.067 3.4493L49.2908 3.38347L49.5277 3.33081L49.7515 3.25182L49.9885 3.22549L50.2255 3.19916L50.423 3.02801L50.6863 3.09384L50.8969 2.98852L51.1207 2.89636L51.3445 2.8042L51.5289 2.56723L51.7658 2.5409L51.9765 2.44874L52.2266 2.43557L52.5031 2.5409L52.7401 2.51457L52.9507 2.43557L53.1614 2.30392L53.3588 2.11961L53.6353 2.21176L53.8723 2.1986L54.0829 2.06695L54.2804 1.86947L54.5305 1.88263L54.7807 1.90896H55.0177L55.2546 1.88263L55.4653 1.72465L55.7022 1.68515L55.9129 1.593L56.1499 1.54034L56.3737 1.43501L56.6106 1.44818L56.8608 1.46134L57.0714 1.2902L57.2952 1.2507L57.5585 1.34286L57.7955 1.32969H58.0325L58.2695 1.2902L58.4669 1.06639L58.7303 1.19804L58.9409 1.00056L59.2042 1.13221L59.428 1.02689L59.665 1.04006L59.902 1.01373L60.1258 0.868908L60.3627 0.895238L60.5734 0.684594L60.8367 0.882073L61.0605 0.789916L61.2843 0.697759L61.5345 0.710924L61.7583 0.631933L61.9821 0.513445L62.2454 0.737255L62.4692 0.579272L62.7062 0.605602L62.93 0.447619L63.1801 0.513445L63.4039 0.421289L63.6541 0.526611L63.8779 0.355462L64.1149 0.315966L64.3518 0.381793L64.5888 0.302801L64.8126 0.22381L65.0628 0.315966L65.2866 0.22381H65.5235L65.7737 0.342297L66.0106 0.381793H66.2476L66.4846 0.329132H66.7216L66.9585 0.22381L67.1824 0.197479L67.4325 0.276471L67.6563 0.0526611L67.8933 0.0921569L68.1303 0.157983L68.3672 0.0921569L68.6042 0.144818L68.8412 0.0526611L69.0782 0H69.3151L69.5521 0.0658263L69.7891 0.0526611L70.0261 0.197479L70.263 0.0131653L70.5 0.0394958L70.737 0.131653L70.974 0.236975L71.2109 0.118487L71.4479 0.0131653L71.6849 0.131653L71.9219 0.0789916L72.1588 0.0394958L72.3958 0.0526611L72.6328 0.276471L72.8698 0.263305L73.1067 0.302801L73.3437 0.157983L73.5807 0.25014H73.8176L74.0678 0.0789916L74.2916 0.276471L74.5286 0.131653L74.7655 0.329132L75.0025 0.197479L75.2395 0.302801H75.4765L75.7003 0.434454L75.9373 0.421289L76.1874 0.289636L76.4244 0.22381L76.6482 0.408123L76.8852 0.526611L77.1353 0.329132H77.3723L77.5961 0.50028L77.8331 0.460784L78.0569 0.592437L78.307 0.526611L78.5308 0.684594L78.781 0.579272L79.0179 0.513445L79.2417 0.72409L79.4656 0.789916L79.7157 0.697759L79.9263 0.868908L80.2028 0.671429L80.4266 0.737255L80.6768 0.710924L80.8874 0.855742H81.1244L81.3614 0.921569L81.572 1.07955L81.8221 1.05322L82.0854 0.934734L82.2829 1.11905L82.5067 1.23754L82.7832 1.05322L83.007 1.17171H83.244L83.4546 1.30336L83.6653 1.46134L83.9022 1.51401L84.1524 1.44818L84.4157 1.35602L84.6395 1.44818L84.8765 1.47451L85.0608 1.75098L85.3373 1.593H85.5742L85.7717 1.80364H86.0087L86.2193 1.96162L86.4431 2.04062L86.7328 1.86947L86.9566 1.92213L87.1672 2.06695L87.391 2.1591L87.6412 2.13277L87.8782 2.18543L88.0756 2.33025L88.3258 2.31709L88.5628 2.36975L88.7602 2.55406L88.9709 2.65938L89.221 2.63305L89.4843 2.60672L89.695 2.71205L89.9319 2.75154L90.1163 2.94902L90.3927 2.88319L90.6297 2.89636L90.8008 3.17283L91.0247 3.22549L91.288 3.19916L91.4986 3.29132L91.7224 3.37031L91.9857 3.33081L92.1569 3.59412L92.3807 3.64678L92.5913 3.77843L92.8283 3.81793L93.0653 3.85742L93.3286 3.80476L93.4866 4.08123L93.763 4.00224L93.9737 4.12073L94.1843 4.22605L94.3818 4.3972L94.6188 4.4367L94.8294 4.52885L95.1191 4.44986L95.2902 4.63417L95.5009 4.75266L95.7115 4.85798L95.9353 4.93698L96.2381 4.83165L96.4487 4.92381L96.5804 5.23978L96.8042 5.31877L97.0938 5.22661L97.3308 5.27927L97.4888 5.52941L97.7521 5.51625L97.8969 5.77955L98.2129 5.6479L98.4104 5.76639L98.5947 5.96387L98.8053 6.05602L99.0028 6.18768L99.253 6.21401L99.4241 6.42465H99.6742L99.8849 6.54314L100.096 6.64846L100.346 6.67479L100.583 6.72745L100.741 6.95126L100.912 7.14874L101.188 7.09608L101.399 7.22773L101.636 7.28039L101.768 7.5437L102.083 7.45154L102.241 7.66219L102.413 7.8465L102.676 7.83333L102.9 7.92549L103.097 8.07031L103.268 8.25462L103.558 8.1888L103.676 8.47843L103.874 8.61008L104.085 8.72857L104.387 8.66275L104.506 8.95238L104.717 9.04454L104.914 9.18936L105.164 9.21569L105.375 9.32101L105.572 9.45266L105.822 9.50532L106.02 9.62381L106.217 9.76863L106.402 9.92661L106.573 10.0978L106.744 10.2689L107.02 10.2557L107.152 10.5059L107.35 10.6375L107.652 10.5849L107.863 10.7034L108.061 10.835L108.245 10.993L108.363 11.2563L108.653 11.2431L108.785 11.4669L108.943 11.6513L109.14 11.7961L109.417 11.8092L109.654 11.8619L109.785 12.0989L109.996 12.2042L110.167 12.3754L110.312 12.5728L110.509 12.7176L110.759 12.7703L111.01 12.8361L111.154 13.0204L111.312 13.2179L111.497 13.3627L111.799 13.3496L111.892 13.6261L112.036 13.8235L112.379 13.7709L112.445 14.0868L112.603 14.2448L112.787 14.4028L113.142 14.3238L113.261 14.5476L113.406 14.7583L113.577 14.9294L113.774 15.0479L114.011 15.1532L114.182 15.298L114.301 15.535H114.617L114.762 15.7193L114.946 15.8641L115.143 15.9958L115.315 16.1669L115.459 16.3644L115.723 16.4171L115.868 16.6146L116.025 16.7989L116.131 17.0227L116.355 17.1412L116.578 17.2465L116.815 17.3387L116.947 17.5361L117.158 17.6546L117.355 17.7863L117.395 18.1022L117.684 18.1286L117.763 18.405L117.974 18.5235L118.066 18.7737L118.356 18.8L118.461 19.0501L118.711 19.116L118.896 19.274L119.106 19.3924L119.238 19.6031L119.435 19.7347L119.422 20.077L119.751 20.0902L119.791 20.393L119.975 20.5378L120.094 20.7485L120.291 20.8933L120.568 20.9459L120.66 21.1961L120.857 21.3277L121.107 21.4199L121.094 21.7622L121.318 21.8675L121.436 22.0782L121.752 22.1176L121.897 22.302L121.963 22.5521L122.161 22.6969L122.292 22.8944L122.542 22.9997L122.555 23.3025L122.753 23.4473L122.95 23.5922L123.227 23.658L123.266 23.9345L123.464 24.0793L123.596 24.2768L123.635 24.5532L123.819 24.698L124.004 24.856L124.267 24.9482L124.412 25.1325L124.491 25.3826L124.715 25.5011L124.728 25.8039L125.057 25.8303L125.123 26.0936L125.241 26.3042L125.425 26.449L125.662 26.5675L125.807 26.7518L125.755 27.0941L126.057 27.1599L126.084 27.4364L126.202 27.6471L126.373 27.805L126.492 28.0157L126.624 28.2132L126.9 28.3053L126.992 28.5291L127.045 28.7924L127.176 28.9768L127.479 29.0557L127.624 29.2401L127.611 29.5429L127.861 29.6613L128.032 29.8193L128.019 30.1221L128.322 30.2011V30.4908L128.427 30.7014L128.69 30.8067L128.809 31.0174L128.914 31.228L129.02 31.4387L129.138 31.6493L129.362 31.781L129.428 32.0179L129.665 32.1496L129.652 32.4392L129.875 32.584L129.994 32.7947L130.099 32.9922L130.297 33.1501L130.402 33.374L130.52 33.5714L130.494 33.8742L130.718 34.019L130.797 34.2429L131.034 34.3745L131.152 34.5852L131.139 34.8616L131.218 35.0854L131.547 35.1776V35.4541L131.784 35.5857L131.903 35.7832L131.863 36.086L131.955 36.2966L132.245 36.4151L132.35 36.6258V36.9022L132.522 37.0734L132.68 37.2577L132.666 37.5342L132.917 37.6658L132.903 37.9423L133.088 38.1134L133.035 38.4031L133.285 38.5479L133.325 38.7849L133.496 38.9692L133.654 39.1535L133.785 39.351L133.851 39.588L133.917 39.8118L134.036 40.0224V40.2857L134.22 40.4569V40.7202L134.338 40.9308L134.523 41.102L134.654 41.2994L134.72 41.5364L134.668 41.8129L134.812 42.0104L134.839 42.2605L135.102 42.4053L135.181 42.6291L135.22 42.8661L135.352 43.0636L135.326 43.3269L135.431 43.5507L135.642 43.7219L135.681 43.9457L135.8 44.1563L135.958 44.3538L135.879 44.6434L136.182 44.7751L136.103 45.0647L136.274 45.249L136.432 45.4465L136.366 45.723L136.392 45.9599L136.669 46.1179L136.774 46.3286L136.629 46.6314L136.761 46.8289L136.866 47.0395L136.84 47.3028L136.971 47.5134L137.064 47.7241L137.169 47.9479L137.393 48.119L137.314 48.3955L137.353 48.6325L137.445 48.8431L137.682 49.0275L137.603 49.2908L137.63 49.5277L137.656 49.7779L137.932 49.9359L138.012 50.1597L137.972 50.423L138.117 50.6205L138.235 50.8443L138.051 51.1339L138.327 51.305L138.42 51.5289L138.248 51.8185L138.341 52.0423L138.472 52.2398L138.67 52.4373L138.499 52.7269L138.709 52.9244L138.617 53.1877L138.696 53.4115L138.907 53.5958L138.973 53.8328L139.065 54.0434L139.091 54.2936L139.038 54.5437L139.183 54.7543L139.117 55.0045L139.21 55.2283L139.157 55.4916L139.223 55.7154L139.262 55.9524L139.394 56.163L139.486 56.3868L139.618 56.5975L139.67 56.8345L139.486 57.1109L139.657 57.3084L139.683 57.5454L139.644 57.7955L139.683 58.0325L139.749 58.2563L139.841 58.4801L139.973 58.7039L139.934 58.9541V59.191L140.131 59.4017L140.052 59.6518V59.8888L140.065 60.1258L140.289 60.3364L140.144 60.5866L140.263 60.8104L140.118 61.0737L140.342 61.2843L140.315 61.5213L140.368 61.7583L140.329 61.9952L140.355 62.2322L140.421 62.4692L140.579 62.693L140.408 62.9431L140.447 63.1801L140.46 63.4171L140.631 63.6409L140.697 63.8647L140.487 64.128L140.579 64.3518L140.71 64.5756L140.618 64.8258L140.579 65.0628L140.671 65.2997L140.776 65.5235L140.737 65.7605L140.882 65.9975L140.829 66.2345L140.776 66.4714L140.868 66.7084L140.658 66.9585L140.724 67.1824L140.803 67.4193L140.724 67.6563L140.895 67.8933L140.855 68.1303L140.895 68.3672L140.921 68.6042L140.934 68.8412L140.868 69.0782L140.947 69.3151L140.776 69.5521L140.855 69.7891L140.921 70.0261L140.947 70.263L140.855 70.5Z" fill="#64B4FA"/>
</svg>
